<?xml version="1.0" encoding="utf-8"?>
<!-- Generator: Adobe Illustrator 27.5.0, SVG Export Plug-In . SVG Version: 6.00 Build 0)  -->
<svg version="1.1" xmlns="http://www.w3.org/2000/svg" xmlns:xlink="http://www.w3.org/1999/xlink" x="0px" y="0px"
	 viewBox="0 0 2500 2500" style="enable-background:new 0 0 2500 2500;" xml:space="preserve">
<g id="Background">
	<rect style="fill:#bfae93;" width="2500" height="2500"/>
</g>
<g id="Illustration">
	<g id="Private_investigation_1_">
		<circle style="fill:#F2E6DC;" cx="1250" cy="1250" r="915"/>
		<path style="fill:#F7F1EB;" d="M401.048,1383.647c-1.327,10.039-1.357,20.087-0.171,29.922l-27.958,11.389l23.956,58.808
			l27.958-11.389c6.024,7.865,13.067,15.031,21.031,21.286l-11.714,27.818l58.523,24.644l11.714-27.818
			c10.039,1.327,20.087,1.358,29.923,0.171l11.389,27.958l58.808-23.956l-11.389-27.958c7.865-6.024,15.032-13.067,21.286-21.031
			l27.818,11.714l24.644-58.523l-27.818-11.714c1.327-10.039,1.357-20.087,0.171-29.922l27.958-11.389l-23.956-58.808
			l-27.958,11.389c-6.024-7.865-13.067-15.031-21.031-21.286l11.714-27.818l-58.523-24.644l-11.714,27.818
			c-10.039-1.327-20.087-1.357-29.923-0.171l-11.389-27.958l-58.808,23.956l11.389,27.958c-7.865,6.024-15.031,13.066-21.286,21.031
			l-27.818-11.714l-24.644,58.523L401.048,1383.647z M459.136,1373.658c14.166-33.64,52.921-49.427,86.561-35.261
			c33.64,14.166,49.427,52.921,35.261,86.561c-14.166,33.64-52.92,49.427-86.561,35.261
			C460.757,1446.053,444.97,1407.298,459.136,1373.658z"/>
		<g>
			
				<ellipse transform="matrix(0.7071 -0.7071 0.7071 0.7071 -234.0958 715.6781)" style="fill:#FFFFFF;" cx="746.852" cy="640.418" rx="91.859" ry="91.859"/>
			<polygon style="fill:#D87355;" points="741.57,696.159 689.774,649.486 705.925,634.489 737.93,663.08 783.633,596.225 
				801.785,608.725 			"/>
		</g>
		<path style="fill:#FFFFFF;" d="M1510.872,428.404l-0.177-0.036c-26.897-5.455-47.94-26.441-53.467-53.324l0,0l-0.036,0.177
			c-5.455,26.897-26.441,47.94-53.324,53.467l0,0l0.177,0.036c26.897,5.455,47.94,26.441,53.467,53.324l0,0l0.036-0.177
			C1463.003,454.974,1483.989,433.931,1510.872,428.404L1510.872,428.404z"/>
		<g>
			<g>
				
					<rect x="747.313" y="829.345" transform="matrix(-1 -1.224647e-16 1.224647e-16 -1 2734.7483 2538.5183)" style="fill:#D3BBA3;" width="1240.123" height="879.829"/>
				
					<rect x="1004.094" y="650.398" transform="matrix(-1.836970e-16 1 -1 -1.836970e-16 2598.9263 -135.8219)" style="fill:#F2E6DC;" width="726.56" height="1162.308"/>
				
					<ellipse transform="matrix(0.0021 -1 1 0.0021 -282.9245 3011.2332)" style="fill:#FFFFFF;" cx="1367.374" cy="1647.381" rx="23.355" ry="23.344"/>
				<path style="fill:#D3BBA3;" d="M1236.834,1727.815h36.715l0,0c0,27.555,22.326,49.893,49.867,49.893h87.916
					c27.541,0,49.868-22.338,49.868-49.893l0,0h36.714l36.715,195.211v16.326H1200.12v-16.326L1236.834,1727.815z"/>
				<path style="fill:#E6D0BE;" d="M1534.628,1961.963H1200.12c-1.218,0-2.205-0.987-2.205-2.205c0-1.218,0.987-2.205,2.205-2.205
					h334.508c1.219,0,2.205,0.987,2.205,2.205C1536.833,1960.976,1535.847,1961.963,1534.628,1961.963z"/>
			</g>
			<g>
				<g>
					<polygon style="fill:#E6D0BE;" points="1117.622,1281.273 829.155,1281.273 829.155,1018.624 880.565,984.396 915.132,932.986 
						1117.622,932.986 					"/>
					<g>
						<polygon style="fill:#FFFFFF;" points="915.132,1018.624 829.39,1018.624 915.132,932.881 						"/>
						<path style="fill:#D3BBA3;" d="M915.132,1020.828H829.39c-0.891,0-1.696-0.537-2.037-1.361
							c-0.341-0.825-0.153-1.772,0.478-2.403l85.743-85.742c0.631-0.631,1.574-0.82,2.403-0.478
							c0.824,0.341,1.361,1.146,1.361,2.037v85.743C917.337,1019.841,916.35,1020.828,915.132,1020.828z M834.712,1016.419h78.215
							v-78.215L834.712,1016.419z"/>
					</g>
				</g>
				<g>
					<polygon style="fill:#FFFFFF;" points="1226.944,1344.885 938.476,1344.885 938.476,1082.235 989.886,1048.007 
						1024.453,996.597 1226.944,996.597 					"/>
					<g>
						<path style="fill:#D3BBA3;" d="M1081.034,1141.347H979.046c-1.218,0-2.205-0.987-2.205-2.205c0-1.218,0.987-2.205,2.205-2.205
							h101.988c1.218,0,2.205,0.987,2.205,2.205C1083.239,1140.36,1082.252,1141.347,1081.034,1141.347z"/>
						<path style="fill:#D3BBA3;" d="M1161.725,1141.347h-58.447c-1.218,0-2.205-0.987-2.205-2.205c0-1.218,0.987-2.205,2.205-2.205
							h58.447c1.218,0,2.205,0.987,2.205,2.205C1163.93,1140.36,1162.943,1141.347,1161.725,1141.347z"/>
						<path style="fill:#D3BBA3;" d="M1030.307,1182.107h-51.261c-1.218,0-2.205-0.987-2.205-2.205c0-1.218,0.987-2.205,2.205-2.205
							h51.261c1.218,0,2.205,0.987,2.205,2.205C1032.512,1181.12,1031.525,1182.107,1030.307,1182.107z"/>
						<path style="fill:#D3BBA3;" d="M1161.725,1182.107H1052.55c-1.218,0-2.205-0.987-2.205-2.205c0-1.218,0.987-2.205,2.205-2.205
							h109.175c1.218,0,2.205,0.987,2.205,2.205C1163.93,1181.12,1162.943,1182.107,1161.725,1182.107z"/>
						<path style="fill:#D3BBA3;" d="M1161.725,1222.868h-149.314c-1.218,0-2.205-0.987-2.205-2.205
							c0-1.218,0.987-2.205,2.205-2.205h149.314c1.218,0,2.205,0.987,2.205,2.205
							C1163.93,1221.88,1162.943,1222.868,1161.725,1222.868z"/>
					</g>
					<polygon style="fill:#E6D0BE;" points="1024.453,1082.235 938.711,1082.235 1024.453,996.493 					"/>
					<path style="fill:#D3BBA3;" d="M1226.944,1347.089H938.477c-1.218,0-2.205-0.987-2.205-2.205v-63.61
						c0-1.218,0.987-2.205,2.205-2.205s2.205,0.987,2.205,2.205v61.406h284.058V996.597c0-1.218,0.987-2.205,2.205-2.205
						s2.205,0.987,2.205,2.205v348.287C1229.149,1346.102,1228.162,1347.089,1226.944,1347.089z"/>
				</g>
			</g>
			<g>
				<path style="fill:#EFBC73;" d="M2101.797,2011.749h-603.285c-1.219,0-2.205-0.987-2.205-2.205v-751.198
					c0-1.218,0.986-2.205,2.205-2.205h603.285c1.219,0,2.205,0.987,2.205,2.205v751.198
					C2104.001,2010.762,2103.015,2011.749,2101.797,2011.749z M1500.716,2007.34h598.875v-746.789h-598.875V2007.34z"/>
				<rect x="1515.127" y="1255.022" style="fill:#FFFFFF;" width="603.285" height="757.846"/>
			</g>
			<g>
				
					<rect x="1272.689" y="686.651" transform="matrix(-1 -1.224647e-16 1.224647e-16 -1 3102.6804 2124.2095)" style="fill:#FFFFFF;" width="557.301" height="750.907"/>
				<path style="fill:#8B865C;" d="M1806.952,1421.159h-557.303c-1.218,0-2.205-0.987-2.205-2.205V668.047
					c0-1.218,0.987-2.205,2.205-2.205h557.303c1.219,0,2.205,0.987,2.205,2.205v750.908
					C1809.156,1420.172,1808.17,1421.159,1806.952,1421.159z M1251.854,1416.75h552.893V670.251h-552.893V1416.75z"/>
				<g>
					<g>
						<g>
							<path style="fill:#8B865C;" d="M1768.005,774.545h-411.057c-1.219,0-2.205-0.987-2.205-2.205s0.986-2.205,2.205-2.205
								h411.057c1.219,0,2.205,0.987,2.205,2.205S1769.224,774.545,1768.005,774.545z"/>
							<path style="fill:#8B865C;" d="M1768.005,805.856h-411.472c-1.219,0-2.205-0.987-2.205-2.205
								c0-1.218,0.986-2.205,2.205-2.205h411.472c1.219,0,2.205,0.987,2.205,2.205
								C1770.21,804.869,1769.224,805.856,1768.005,805.856z"/>
							<path style="fill:#8B865C;" d="M1768.005,837.168h-411.472c-1.219,0-2.205-0.987-2.205-2.205
								c0-1.218,0.986-2.205,2.205-2.205h411.472c1.219,0,2.205,0.987,2.205,2.205
								C1770.21,836.181,1769.224,837.168,1768.005,837.168z"/>
						</g>
					</g>
					<g>
						<rect x="1327.592" y="888.483" style="fill:#F2E6DC;" width="311.309" height="125.23"/>
						<rect x="1328.157" y="1142.841" style="fill:#F2E6DC;" width="314.495" height="32.205"/>
						<rect x="1328.157" y="1190.224" style="fill:#F2E6DC;" width="314.495" height="32.205"/>
						<rect x="1328.157" y="1237.606" style="fill:#F2E6DC;" width="314.495" height="32.205"/>
						<rect x="1328.157" y="1284.989" style="fill:#F2E6DC;" width="314.495" height="32.205"/>
						<rect x="1328.157" y="1332.371" style="fill:#F2E6DC;" width="314.495" height="32.205"/>
						<rect x="1655.738" y="1142.841" style="fill:#F2E6DC;" width="116.581" height="221.735"/>
						<g>
							<rect x="1328.157" y="1037.909" style="fill:#F2E6DC;" width="444.727" height="29.688"/>
						</g>
						<g>
							<rect x="1328.157" y="1087.721" style="fill:#F2E6DC;" width="444.727" height="29.688"/>
						</g>
					</g>
				</g>
				<g>
					<rect x="1653.438" y="889.036" style="fill:#F2E6DC;" width="119.96" height="122.849"/>
					<path style="fill:#FFFFFF;" d="M1669.819,983.03c28.903-0.028,57.806-0.056,86.708-0.084
						c-12.845-42.658-20.953-53.445-26.258-52.854c-7.664,0.854-9.926,25.507-20.459,26.221c-6.332,0.429-8.873-8.252-15.253-8.56
						C1689.071,947.487,1680.901,953.423,1669.819,983.03z"/>
					
						<ellipse transform="matrix(0.1581 -0.9874 0.9874 0.1581 518.125 2453.1519)" style="fill:#FFFFFF;" cx="1697.63" cy="922.739" rx="11.195" ry="11.195"/>
				</g>
			</g>
			<rect x="1572.463" y="1255.022" style="fill:#EFBC73;" width="548.441" height="757.846"/>
			<rect x="1530.911" y="1337.271" style="fill:#EFBC73;" width="68.971" height="256.77"/>
		</g>
		<g>
			<g>
				<g>
					<polygon style="fill:#BC8271;" points="520.856,2099.437 433.571,2098.126 459.578,1985.708 548.527,2000.517 					"/>
					<g>
						<path style="fill:#84524D;" d="M642.808,2157.315H416.778l20.813-86.311h88.55l64.033,19.511
							C621.555,2099.006,643.097,2126.345,642.808,2157.315L642.808,2157.315z"/>
						<g>
							<path style="fill:#363E44;" d="M540.084,2095.054c-0.565,0-1.129-0.215-1.56-0.647c-0.86-0.861-0.86-2.258,0.002-3.118
								l14.151-14.134c0.859-0.859,2.257-0.861,3.118,0.002c0.86,0.861,0.86,2.258-0.002,3.118l-14.151,14.134
								C541.212,2094.839,540.648,2095.054,540.084,2095.054z"/>
							<path style="fill:#363E44;" d="M556.17,2099.874c-0.565,0-1.129-0.215-1.56-0.647c-0.86-0.861-0.86-2.258,0.002-3.118
								l14.15-14.134c0.86-0.86,2.258-0.86,3.118,0.002c0.86,0.861,0.86,2.258-0.002,3.118l-14.15,14.134
								C557.298,2099.659,556.734,2099.874,556.17,2099.874z"/>
						</g>
					</g>
				</g>
				<g>
					<polygon style="fill:#BC8271;" points="928.267,2116.258 840.982,2114.947 843.678,1985.708 932.627,2000.517 					"/>
					<g>
						<path style="fill:#84524D;" d="M1048.471,2157.315H822.442l19.465-86.311h89.898l64.033,19.511
							C1027.219,2099.006,1048.76,2126.345,1048.471,2157.315L1048.471,2157.315z"/>
						<g>
							<path style="fill:#363E44;" d="M945.809,2096.486c-0.565,0-1.129-0.215-1.56-0.647c-0.86-0.861-0.86-2.258,0.002-3.118
								l14.151-14.134c0.86-0.86,2.258-0.86,3.118,0.002c0.86,0.861,0.86,2.258-0.002,3.118l-14.151,14.134
								C946.938,2096.271,946.373,2096.486,945.809,2096.486z"/>
							<path style="fill:#363E44;" d="M961.895,2101.307c-0.565,0-1.129-0.215-1.56-0.647c-0.86-0.861-0.86-2.258,0.002-3.118
								l14.15-14.134c0.86-0.86,2.258-0.86,3.118,0.002c0.86,0.861,0.86,2.258-0.002,3.118l-14.15,14.134
								C963.024,2101.092,962.459,2101.307,961.895,2101.307z"/>
						</g>
					</g>
				</g>
				<g>
					<path style="fill:#8B865C;" d="M636.129,1246.624c0,0-53.909,119.815-90.297,265.209
						c-36.388,145.394-101.079,510.224-101.079,510.224h99.731c0,0,196.767-224.822,214.287-533.11l60.647-243.669L636.129,1246.624
						z"/>
					<path style="fill:#8B865C;" d="M716.992,1534.719c0,0,102.427,148.086,110.513,479.261h114.556
						c0,0,83.559-185.781,36.388-380.985c-47.17-195.205-123.99-405.218-123.99-405.218H731.817L716.992,1534.719z"/>
					<path style="fill:#F2E6DC;" d="M749.833,1573.024c-0.149,0-0.298-0.015-0.45-0.046c-1.192-0.247-1.958-1.414-1.711-2.606
						l20.509-98.956c0.116-0.562,0.448-1.057,0.924-1.379l29.84-20.175c1.007-0.68,2.379-0.418,3.062,0.592
						c0.682,1.009,0.417,2.379-0.592,3.062l-29.099,19.673l-20.327,98.079C751.774,1572.308,750.857,1573.024,749.833,1573.024z"/>
				</g>
			</g>
			<g>
				<g>
					<polygon style="fill:#D3BBA3;" points="645.145,990.567 765.675,968.518 780.373,1333.048 664.253,1344.808 					"/>
					<path style="fill:#363E44;" d="M477.578,1740.205l216.072,11.759c15.11-281.229,10.64-543.837-39.852-762.669
						c-26.539,8.483-50.939,18.442-65.808,27.306c-68.44,40.799-95.6,76.106-95.6,76.106l103.783,23.316l-48.684,141.432
						C530.597,1306.531,477.578,1740.205,477.578,1740.205z"/>
					<path style="fill:#363E44;" d="M874.937,1134.624l131.507-36.545c0,0-109.526-108.136-157.777-118.444
						c-24.552-5.245-62.512-11.931-99.034-10.224c2.717,245.54,33.509,506.49,84.248,778.386l3.818,11.517l163.157-7.349
						c-25.433-172.437-65.921-338.085-133.544-491.497L874.937,1134.624z"/>
					<path style="fill:#F2E6DC;" d="M648.083,1172.832c-0.517,0-1.037-0.181-1.456-0.55l-27.56-24.253
						c-0.661-0.581-0.913-1.5-0.64-2.337l14.618-44.897l-29.359-4.049c-1.133-0.156-1.958-1.153-1.9-2.296l4.41-87.09
						c0.061-1.215,1.088-2.171,2.314-2.09c1.215,0.061,2.152,1.097,2.09,2.314l-4.307,85.071l29.967,4.133
						c0.647,0.089,1.221,0.461,1.568,1.014c0.347,0.553,0.43,1.232,0.227,1.853l-14.984,46.025l26.471,23.295
						c0.914,0.804,1.003,2.197,0.198,3.111C649.304,1172.579,648.695,1172.832,648.083,1172.832z"/>
					<path style="fill:#F2E6DC;" d="M809.035,1076.923c-0.28,0-0.564-0.054-0.839-0.167l-18.741-7.717
						c-0.692-0.285-1.192-0.902-1.328-1.638c-0.136-0.736,0.11-1.491,0.654-2.005l18.844-17.798l-23.846-76.959
						c-0.361-1.163,0.29-2.397,1.453-2.758c1.159-0.364,2.398,0.289,2.758,1.453l24.253,78.271c0.249,0.803,0.019,1.678-0.592,2.255
						l-17.363,16.398l15.587,6.417c1.126,0.464,1.662,1.753,1.199,2.879C810.724,1076.409,809.902,1076.922,809.035,1076.923z"/>
				</g>
				<g>
					<path style="fill:#363E44;" d="M870.98,1178.597c0,0,58.147,42.793,102.57,28.955c44.423-13.839,53.114-45.678,50.388-64.96
						c-2.726-19.282-70.156-141.154-181.278-164.152C842.66,978.44,827.312,1117.389,870.98,1178.597z"/>
					<path style="fill:#363E44;" d="M872.174,1180.03c-0.013,0-0.026,0-0.039,0c-1.216-0.021-2.188-1.025-2.167-2.243l0.304-17.982
						c0.021-1.218,1.106-2.181,2.242-2.167c1.216,0.021,2.188,1.025,2.167,2.243l-0.304,17.982
						C874.357,1179.067,873.374,1180.03,872.174,1180.03z"/>
				</g>
				<g>
					<g>
						<path style="fill:#EFBC73;" d="M690.977,1244.294l4.575,4.586c11.145,11.171,29.238,11.202,40.42,0.069l136.351-135.734
							c4.851-4.829,4.865-12.675,0.03-17.521l-27.45-27.514c-4.83-4.842-12.672-4.855-17.519-0.03l-136.338,135.721
							C679.854,1215.013,679.823,1233.115,690.977,1244.294z"/>
						<path style="fill:#363E44;" d="M793.838,1131.168c-0.574,0-1.147-0.223-1.579-0.666c-0.849-0.872-0.831-2.267,0.041-3.118
							l45.516-44.358c0.872-0.849,2.267-0.831,3.118,0.041c0.849,0.872,0.831,2.267-0.041,3.118l-45.516,44.358
							C794.948,1130.961,794.393,1131.168,793.838,1131.168z"/>
						<path style="fill:#363E44;" d="M809.31,1146.895c-0.574,0-1.147-0.223-1.579-0.666c-0.849-0.872-0.831-2.267,0.041-3.118
							l45.516-44.358c0.872-0.85,2.266-0.831,3.118,0.041c0.849,0.872,0.831,2.267-0.041,3.118l-45.516,44.358
							C810.419,1146.687,809.864,1146.895,809.31,1146.895z"/>
						<polygon style="fill:#EFBC73;" points="845.776,1069.262 871.284,1094.829 955.384,1011.34 929.877,985.773 						"/>
					</g>
					<g>
						<path style="fill:#EFBC73;" d="M1183.117,452.593c-169.259,0-306.47,137.211-306.47,306.47s137.211,306.47,306.47,306.47
							s306.47-137.211,306.47-306.47S1352.375,452.593,1183.117,452.593z M1186.799,1026.58
							c-147.745,0-267.517-119.772-267.517-267.518s119.772-267.518,267.517-267.518c147.746,0,267.518,119.772,267.518,267.518
							S1334.545,1026.58,1186.799,1026.58z"/>
						<g>
							<path style="fill:#363E44;" d="M1182.98,1078.45c-82.267,0-164.535-31.28-227.163-93.841
								c-60.679-60.612-94.097-141.2-94.097-226.918c0-85.719,33.418-166.307,94.097-226.919
								c125.256-125.12,329.066-125.122,454.327,0c60.678,60.612,94.097,141.2,94.097,226.919
								c0,85.718-33.419,166.306-94.097,226.918C1347.514,1047.17,1265.246,1078.45,1182.98,1078.45z M957.375,532.333l1.558,1.56
								c-59.844,59.779-92.803,139.259-92.803,223.799c0,84.539,32.958,164.019,92.803,223.798
								c123.541,123.405,324.557,123.407,448.094,0c59.847-59.779,92.805-139.259,92.805-223.798
								c0-84.54-32.958-164.02-92.805-223.799c-123.539-123.408-324.555-123.405-448.094,0L957.375,532.333z"/>
							<path style="fill:#F2E6DC;" d="M980.699,557.836c-0.565,0-1.129-0.215-1.56-0.647c-0.86-0.861-0.86-2.258,0.002-3.118
								c82.108-82.019,204.698-106.849,312.313-63.255c1.13,0.457,1.673,1.743,1.217,2.871c-0.457,1.128-1.744,1.671-2.87,1.215
								c-105.974-42.926-226.691-18.476-307.544,62.288C981.827,557.62,981.263,557.836,980.699,557.836z"/>
							<path style="fill:#363E44;" d="M1183.414,1045.59c-75.295,0-149.312-29.378-204.273-84.279
								c-0.862-0.86-0.862-2.256-0.002-3.118c0.861-0.863,2.257-0.861,3.118-0.002c78.41,78.324,196.229,103.899,300.152,65.162
								c1.139-0.427,2.411,0.154,2.838,1.296c0.424,1.141-0.155,2.41-1.296,2.836
								C1251.259,1039.671,1217.203,1045.59,1183.414,1045.59z"/>
						</g>
					</g>
				</g>
				<g>
					<g>
						<path style="fill:#BC8271;" d="M780.154,1152.975c-10.155,3.074-54.4,9.108-61.337,28.697
							c-6.987,19.729,0.969,41.375,14.071,57.613c0.084,0.011,0.178,0.024,0.261,0.036c5.19,2.552,13.351,5.576,22.885,4.452
							c10.869-1.281,13.112-6.724,24.379-9.856c19.018-5.287,31.523,5.517,34.728-0.691c2.2-4.26-4.813-10.871-12.789-15.233
							c-8.189-4.479-15.391-3.927-15.388-5.456c0.004-1.678,7.388-1.295,16.619-1.659c4.288-0.169,16.316,6.599,20.18,1.217
							c3.08-4.292-7.644-14.458-20.302-17.06c-8.955-1.84-16.751,2.447-17.245,0.857c-0.371-1.193,4.337-3.634,9.017-4.534
							c7.722-1.487,20.102,5.306,23.562,0.283c3.389-4.922-6.134-13.636-17.621-16.764c-9.685-2.638-18.152,2.555-18.777,0.583
							c-0.44-1.387,2.87-4.496,11.417-8.67c7.135-3.483,23.238-5.679,20.735-13.654
							C812.445,1146.427,795.481,1148.335,780.154,1152.975z"/>
						<path style="fill:#BC8271;" d="M562.827,1197.698c-22.333,7.051-37.87,27.774-37.352,51.062
							c0.339,15.268,7.629,31.11,31.392,40.91c57.859,23.861,188.975-57.496,188.975-57.496l16.149-74.92
							C686.518,1169.76,624.3,1178.29,562.827,1197.698z"/>
					</g>
					<g>
						<path style="fill:#363E44;" d="M639.499,1178.324l10.836,111.828l-99.25,15.331c-63.738,9.846-135.656-53.7-120.734-116.376
							c13.057-54.844,45.328-85.551,110.157-140.569l68.625,72.848l-20.29,58.95L639.499,1178.324z"/>
						<path style="fill:#F2E6DC;" d="M588.842,1182.541c-0.236,0-0.476-0.039-0.712-0.12c-1.153-0.393-1.769-1.646-1.375-2.798
							l16.441-48.185c0.392-1.153,1.643-1.769,2.798-1.375c1.153,0.393,1.769,1.646,1.375,2.798l-16.441,48.185
							C590.616,1181.964,589.759,1182.541,588.842,1182.541z"/>
						<path style="fill:#F2E6DC;" d="M536.86,1308.79c-6.094,0-12.144-0.596-18.098-1.788c-1.194-0.239-1.968-1.401-1.729-2.595
							c0.24-1.193,1.397-1.968,2.595-1.729c10.169,2.034,20.64,2.246,31.119,0.626l97.192-15.014l-2.394-24.717
							c-0.118-1.211,0.77-2.289,1.982-2.406c1.212-0.131,2.29,0.77,2.406,1.982l2.596,26.79c0.113,1.163-0.702,2.212-1.857,2.391
							l-99.25,15.332C546.558,1308.414,541.694,1308.789,536.86,1308.79z"/>
						<path style="fill:#F2E6DC;" d="M573.829,1183.137c-1.178,0-2.155-0.93-2.202-2.118c-0.049-1.217,0.899-2.243,2.115-2.29
							l65.669-2.607c1.198-0.033,2.242,0.899,2.29,2.115c0.049,1.217-0.899,2.243-2.115,2.29l-65.669,2.607
							C573.888,1183.135,573.858,1183.137,573.829,1183.137z"/>
					</g>
				</g>
				<g>
					<path style="fill:#BC8271;" d="M870.469,1096.577l70.467,77.973c19.073,21.104,51.799,22.385,72.467,2.837h0
						c22.432-21.218,20.805-57.375-3.443-76.496l-81.362-64.161L870.469,1096.577z"/>
					<g>
						<path style="fill:#BC8271;" d="M916.468,1076.482c11.612,1.873,15.154,7.815,14.11,14.271
							c-1.044,6.457-6.277,10.983-17.889,9.111c-11.612-1.873-25.204-9.436-24.161-15.892
							C889.571,1077.515,904.856,1074.609,916.468,1076.482z"/>
						<path style="fill:#BC8271;" d="M917.532,1053.744c13.458,2.171,17.563,9.057,16.354,16.541
							c-1.21,7.483-7.276,12.73-20.734,10.559c-13.458-2.17-29.212-10.936-28.003-18.419
							C886.359,1054.941,904.074,1051.574,917.532,1053.744z"/>
						<path style="fill:#BC8271;" d="M922.52,1039.034c11.612,1.873,16.846-2.654,17.889-9.111
							c1.044-6.457-2.498-12.399-14.11-14.271c-11.612-1.873-26.896,1.033-27.94,7.49
							C897.316,1029.599,910.909,1037.161,922.52,1039.034z"/>
						<path style="fill:#BC8271;" d="M916.367,1060.952c13.458,2.17,19.524-3.076,20.734-10.559
							c1.21-7.484-2.896-14.37-16.354-16.541c-13.458-2.171-31.173,1.197-32.383,8.681
							C887.155,1050.015,902.909,1058.781,916.367,1060.952z"/>
					</g>
				</g>
			</g>
			<g>
				<g>
					<path style="fill:#BC8271;" d="M706.719,1018.273l-5.219-0.083c-15.428-0.246-27.735-12.953-27.488-28.381l1.569-98.06
						c0.247-15.427,12.953-27.733,28.38-27.487l5.219,0.083c15.428,0.246,27.735,12.953,27.488,28.381l-1.569,98.06
						C734.852,1006.213,722.146,1018.519,706.719,1018.273z"/>
					<g>
						<g>
							<path style="fill:#BC8271;" d="M778.46,924.818c-3.883,18.978-58.918,21.654-58.918,21.654l-53.577-16.035
								c-18.628-19.909-17.573-51.132,2.358-69.74c19.931-18.607,51.189-17.553,69.817,2.356
								C738.14,863.052,782.416,905.488,778.46,924.818z"/>
							<path style="fill:#BC8271;" d="M742.862,876.402c0,0,20.034,1.143,22.112,4.443c2.481,3.938-6.889,16.502-6.889,16.502
								S743.155,876.177,742.862,876.402z"/>
							<g>
								<path style="fill:#FFFFFF;" d="M704.576,896.213c0,0,4.074-7.117,11.466-11.724c1.573-0.98,6.459,13.44,4.521,13.659
									C712.044,899.109,704.576,896.213,704.576,896.213z"/>
								<g>
									<defs>
										<path id="SVGID_1_" d="M704.576,896.213c0,0,5.991-10.467,16.627-14.231c10.635-3.764,21.887,0.6,21.887,0.6
											s-5.992,10.467-16.627,14.231C715.828,900.577,704.576,896.213,704.576,896.213z"/>
									</defs>
									<clipPath id="SVGID_00000025431541649578564060000000373353038642772359_">
										<use xlink:href="#SVGID_1_"  style="overflow:visible;"/>
									</clipPath>
									<path style="clip-path:url(#SVGID_00000025431541649578564060000000373353038642772359_);fill:#363E44;" d="
										M716.152,883.971c1.838-7.931,9.764-12.872,17.704-11.036c7.939,1.836,12.885,9.754,11.047,17.684
										c-1.838,7.931-9.764,12.871-17.703,11.035C719.26,899.819,714.314,891.901,716.152,883.971z"/>
								</g>
							</g>
							<g>
								<path style="fill:#363E44;" d="M624.052,895.577c0,0,18.434,54.165,57.766,45.601l2.135-12.086l22.775-6.746l-23.473-14.647
									c-8.198-6.37-8.514-18.638-0.655-25.42l34.306-29.606l-16.923-17.388C665.131,841.637,638.464,859.779,624.052,895.577z"/>
								<path style="fill:#363E44;" d="M657.016,856.958c-2.985,4.254-8.858,5.284-13.116,2.302
									c-4.258-2.982-7.519-10.409-4.533-14.662c2.986-4.253,11.086-3.723,15.345-0.741
									C658.969,846.839,660.001,852.705,657.016,856.958z"/>
								<path style="fill:#363E44;" d="M664.054,854.243c-4.679,2.269-10.312,0.319-12.583-4.354
									c-2.271-4.673-1.508-12.747,3.17-15.015c4.679-2.268,11.501,2.127,13.772,6.8
									C670.683,846.347,668.732,851.975,664.054,854.243z"/>
								<path style="fill:#363E44;" d="M679.226,848.563c-6.78,1.923-13.838-2.008-15.763-8.781
									c-1.925-6.773,1.003-17.367,7.783-19.291c6.78-1.923,14.845,5.553,16.771,12.326
									C689.942,839.59,686.006,846.64,679.226,848.563z"/>
								<path style="fill:#363E44;" d="M646.59,867.653c-2.846,4.348-8.682,5.567-13.035,2.723
									c-4.352-2.843-7.851-10.161-5.004-14.509c2.846-4.347,10.96-4.079,15.313-1.235
									C648.216,857.475,649.437,863.305,646.59,867.653z"/>
								<path style="fill:#363E44;" d="M689.557,842.532c-5.727-2.559-8.292-9.271-5.73-14.992
									c2.562-5.72,10.622-11.277,16.349-8.718c5.727,2.559,6.951,12.265,4.39,17.986
									C702.003,842.528,695.284,845.091,689.557,842.532z"/>
								<path style="fill:#363E44;" d="M640.038,878.1c-2.489,5.976-9.357,8.804-15.339,6.317
									c-5.982-2.487-11.945-10.648-9.455-16.624c2.489-5.975,12.488-7.503,18.47-5.016
									C639.696,865.265,642.528,872.125,640.038,878.1z"/>
								<path style="fill:#363E44;" d="M632.462,887.159c0.327,5.041-3.499,9.393-8.546,9.72
									c-5.047,0.327-12.045-3.324-12.372-8.365c-0.327-5.042,6.14-9.564,11.187-9.891
									C627.778,878.296,632.135,882.117,632.462,887.159z"/>
								<path style="fill:#363E44;" d="M701.11,851.173c-5.648-5.151-6.048-13.9-0.891-19.543
									c5.156-5.642,16.614-8.994,22.263-3.843c5.648,5.151,3.349,16.854-1.808,22.496
									C715.518,855.925,706.758,856.324,701.11,851.173z"/>
							</g>
							<path style="fill:#BC8271;" d="M659.099,937.115c3.223,8.831,13.002,13.38,21.843,10.16
								c8.841-3.219,13.395-12.988,10.172-21.818c-3.223-8.831-13.002-13.38-21.842-10.161
								C660.43,918.516,655.876,928.285,659.099,937.115z"/>
							<path style="fill:#363E44;" d="M762.624,890.274l24.236,33.623c3.374,4.681,2.157,11.217-2.669,14.385
								c-1.214,0.797-2.537,1.645-3.955,2.528c-24.556,15.279-55.278,16.812-81.221,4.022l0,0
								c-8.691-4.284-13.831-13.484-12.921-23.122l0.3-3.176l8.957-2.162c0,0,19.605,12.501,26.971,8.07
								C729.688,920.012,736.683,904.494,762.624,890.274z"/>
							<path style="fill:#84524D;" d="M750.311,915.99c-2.875,0-5.665-1.375-7.402-3.738c-0.721-0.981-0.511-2.361,0.47-3.082
								c0.981-0.724,2.36-0.51,3.082,0.471c1.064,1.447,2.887,2.181,4.642,1.871c1.82-0.324,3.293-1.701,3.752-3.509
								c0.299-1.182,1.497-1.895,2.678-1.596c1.181,0.299,1.895,1.499,1.596,2.679c-0.883,3.485-3.73,6.141-7.255,6.766
								C751.354,915.944,750.831,915.99,750.311,915.99z"/>
							<path style="fill:#84524D;" d="M649.498,895.199c-1.156,0-2.126-0.9-2.198-2.07c-0.074-1.215,0.851-2.261,2.066-2.335
								l24.947-1.531c1.205-0.076,2.26,0.85,2.335,2.066c0.074,1.215-0.85,2.261-2.066,2.335l-24.947,1.531
								C649.589,895.198,649.543,895.199,649.498,895.199z"/>
						</g>
					</g>
				</g>
				<g>
					<polygon style="fill:#363E44;" points="597.373,850.928 620.157,912.663 728.928,821.531 669.398,796.175 643.675,824.47 					
						"/>
					<polygon style="fill:#363E44;" points="620.157,912.663 617.217,966.681 766.042,825.573 728.928,821.531 					"/>
					<polygon style="fill:#D87355;" points="712.024,812.344 613.542,899.802 617.952,917.808 728.928,821.531 					"/>
				</g>
			</g>
			<g>
				<rect x="1010.656" y="460.963" style="fill:#E6D0BE;" width="352.382" height="352.382"/>
				<g>
					
						<rect x="973.354" y="425.145" transform="matrix(0.9999 -0.0114 0.0114 0.9999 -6.7778 13.093)" style="fill:#D87355;" width="343.713" height="351.99"/>
					<path style="fill:#FFFFFF;" d="M1021.271,695.757c82.808-0.944,165.615-1.888,248.423-2.832
						c-38.077-121.833-61.629-152.499-76.81-150.646c-21.932,2.677-27.676,73.377-57.834,75.738
						c-18.129,1.419-25.669-23.376-43.956-24.07C1075.365,593.35,1052.136,610.6,1021.271,695.757z"/>
					
						<ellipse transform="matrix(0.1017 -0.9948 0.9948 0.1017 467.8527 1562.5135)" style="fill:#FFFFFF;" cx="1099.149" cy="522.189" rx="32.077" ry="32.077"/>
				</g>
			</g>
		</g>
	</g>
</g>
</svg>
