<?xml version="1.0" encoding="utf-8"?>
<!-- Generator: Adobe Illustrator 27.5.0, SVG Export Plug-In . SVG Version: 6.00 Build 0)  -->
<svg version="1.1" id="Ñëîé_1" xmlns="http://www.w3.org/2000/svg" xmlns:xlink="http://www.w3.org/1999/xlink" x="0px" y="0px"
	 viewBox="0 0 2654.125 2200" style="enable-background:new 0 0 2654.125 2200;" xml:space="preserve">
<rect style="fill:#bfae93;" width="2654.125" height="2200"/>
<g>
	<path style="fill:#322A28;" d="M823.054,285.43c-2.125-2.582-4.73-4.567-7.822-5.951c-3.093-1.385-6.668-2.078-10.728-2.078
		c-4.062,0-7.822,0.785-11.282,2.354c-3.461,1.571-6.461,3.761-8.998,6.576c-2.539,2.815-4.523,6.159-5.953,10.036
		c-1.432,3.875-2.146,8.076-2.146,12.597c0,4.616,0.714,8.838,2.146,12.666c1.43,3.83,3.391,7.153,5.884,9.967
		c2.491,2.815,5.42,5.007,8.79,6.574c3.367,1.571,6.99,2.354,10.867,2.354c4.43,0,8.351-0.92,11.766-2.769
		c3.414-1.845,6.229-4.429,8.444-7.751l17.996,13.428c-4.153,5.814-9.413,10.104-15.781,12.873s-12.922,4.153-19.657,4.153
		c-7.661,0-14.721-1.2-21.18-3.599c-6.461-2.398-12.043-5.835-16.749-10.312c-4.707-4.477-8.376-9.899-11.006-16.267
		c-2.63-6.368-3.945-13.473-3.945-21.317s1.315-14.951,3.945-21.319c2.63-6.368,6.298-11.788,11.006-16.265
		c4.706-4.475,10.289-7.911,16.749-10.314c6.458-2.398,13.519-3.599,21.18-3.599c2.769,0,5.652,0.255,8.651,0.762
		c2.998,0.508,5.953,1.314,8.86,2.422c2.907,1.108,5.697,2.586,8.375,4.431c2.675,1.847,5.074,4.106,7.198,6.783L823.054,285.43z"/>
	<path style="fill:#322A28;" d="M848.663,324.329c0-5.351,0.969-10.196,2.907-14.536c1.937-4.336,4.59-8.051,7.96-11.144
		c3.367-3.091,7.336-5.467,11.904-7.128c4.569-1.661,9.435-2.493,14.605-2.493c5.168,0,10.036,0.832,14.604,2.493
		c4.568,1.661,8.535,4.037,11.905,7.128c3.367,3.093,6.021,6.808,7.96,11.144c1.937,4.34,2.907,9.185,2.907,14.536
		c0,5.353-0.97,10.198-2.907,14.534c-1.938,4.34-4.593,8.052-7.96,11.144c-3.37,3.093-7.337,5.469-11.905,7.13
		c-4.568,1.66-9.437,2.491-14.604,2.491c-5.17,0-10.036-0.832-14.605-2.491c-4.567-1.661-8.537-4.037-11.904-7.13
		c-3.37-3.091-6.022-6.804-7.96-11.144C849.632,334.527,848.663,329.682,848.663,324.329z M869.427,324.329
		c0,5.075,1.454,9.183,4.361,12.319c2.907,3.139,6.99,4.706,12.25,4.706c5.26,0,9.344-1.567,12.251-4.706
		c2.907-3.136,4.36-7.244,4.36-12.319c0-5.075-1.453-9.183-4.36-12.321c-2.907-3.136-6.991-4.706-12.251-4.706
		c-5.26,0-9.343,1.571-12.25,4.706C870.881,315.146,869.427,319.254,869.427,324.329z"/>
	<path style="fill:#322A28;" d="M935.593,290.69h19.934v9.137h0.277c0.645-1.291,1.568-2.582,2.768-3.877
		c1.198-1.291,2.63-2.443,4.292-3.46c1.661-1.015,3.552-1.845,5.676-2.491c2.122-0.645,4.429-0.971,6.921-0.971
		c5.26,0,9.504,0.81,12.736,2.424c3.229,1.615,5.745,3.854,7.545,6.713c1.799,2.862,3.021,6.229,3.668,10.105
		c0.645,3.877,0.969,8.077,0.969,12.597v37.099h-20.764V325.02c0-1.937-0.07-3.944-0.208-6.021
		c-0.138-2.076-0.554-3.991-1.246-5.745c-0.692-1.752-1.754-3.184-3.184-4.292c-1.432-1.108-3.484-1.661-6.16-1.661
		c-2.677,0-4.844,0.484-6.506,1.453c-1.661,0.969-2.931,2.263-3.806,3.877c-0.879,1.615-1.454,3.439-1.731,5.467
		c-0.277,2.032-0.415,4.155-0.415,6.368v33.501h-20.765V290.69z"/>
	<path style="fill:#322A28;" d="M1060.87,307.302h-18.273v22.424c0,1.849,0.091,3.531,0.277,5.054
		c0.183,1.522,0.599,2.839,1.246,3.944c0.644,1.108,1.637,1.962,2.976,2.563c1.336,0.6,3.115,0.899,5.33,0.899
		c1.108,0,2.561-0.116,4.36-0.345c1.799-0.23,3.161-0.762,4.084-1.592v17.303c-2.308,0.83-4.706,1.384-7.198,1.661
		c-2.492,0.276-4.938,0.415-7.336,0.415c-3.508,0-6.737-0.371-9.691-1.108c-2.954-0.737-5.537-1.914-7.751-3.529
		c-2.215-1.615-3.945-3.715-5.192-6.298c-1.246-2.584-1.868-5.721-1.868-9.415v-31.976h-13.289V290.69h13.289v-19.933h20.764v19.933
		h18.273V307.302z"/>
	<path style="fill:#322A28;" d="M1135.067,346.339c-3.322,4.245-7.523,7.524-12.597,9.828c-5.077,2.306-10.337,3.462-15.781,3.462
		c-5.17,0-10.036-0.832-14.604-2.491c-4.568-1.661-8.538-4.037-11.905-7.13c-3.37-3.091-6.021-6.804-7.96-11.144
		c-1.938-4.336-2.907-9.181-2.907-14.534c0-5.351,0.969-10.196,2.907-14.536c1.938-4.336,4.59-8.051,7.96-11.144
		c3.367-3.091,7.337-5.467,11.905-7.128c4.568-1.661,9.435-2.493,14.604-2.493c4.797,0,9.157,0.832,13.081,2.493
		c3.922,1.661,7.244,4.037,9.967,7.128c2.722,3.093,4.821,6.808,6.299,11.144c1.474,4.34,2.214,9.185,2.214,14.536v6.505h-48.174
		c0.831,3.969,2.631,7.13,5.399,9.482c2.769,2.354,6.182,3.531,10.243,3.531c3.414,0,6.298-0.762,8.653-2.285
		c2.353-1.522,4.405-3.483,6.159-5.883L1135.067,346.339z M1117.487,316.715c0.091-3.506-1.062-6.507-3.461-8.998
		c-2.401-2.491-5.492-3.738-9.275-3.738c-2.308,0-4.339,0.37-6.091,1.108c-1.754,0.739-3.253,1.685-4.499,2.839
		s-2.215,2.491-2.907,4.014s-1.085,3.115-1.177,4.776H1117.487z"/>
	<path style="fill:#322A28;" d="M1150.846,290.69h19.934v9.137h0.277c0.645-1.291,1.568-2.582,2.768-3.877
		c1.198-1.291,2.63-2.443,4.292-3.46c1.661-1.015,3.552-1.845,5.676-2.491c2.122-0.645,4.429-0.971,6.921-0.971
		c5.26,0,9.504,0.81,12.736,2.424c3.229,1.615,5.745,3.854,7.545,6.713c1.799,2.862,3.021,6.229,3.668,10.105
		c0.645,3.877,0.969,8.077,0.969,12.597v37.099h-20.764V325.02c0-1.937-0.069-3.944-0.208-6.021
		c-0.138-2.076-0.554-3.991-1.246-5.745c-0.692-1.752-1.754-3.184-3.184-4.292c-1.432-1.108-3.484-1.661-6.16-1.661
		c-2.677,0-4.844,0.484-6.506,1.453c-1.661,0.969-2.931,2.263-3.806,3.877c-0.879,1.615-1.454,3.439-1.731,5.467
		c-0.277,2.032-0.415,4.155-0.415,6.368v33.501h-20.765V290.69z"/>
	<path style="fill:#322A28;" d="M1276.124,307.302h-18.273v22.424c0,1.849,0.091,3.531,0.277,5.054
		c0.183,1.522,0.599,2.839,1.246,3.944c0.645,1.108,1.637,1.962,2.976,2.563c1.336,0.6,3.115,0.899,5.33,0.899
		c1.108,0,2.561-0.116,4.36-0.345c1.799-0.23,3.161-0.762,4.084-1.592v17.303c-2.308,0.83-4.706,1.384-7.198,1.661
		c-2.492,0.276-4.938,0.415-7.337,0.415c-3.508,0-6.737-0.371-9.691-1.108c-2.954-0.737-5.537-1.914-7.751-3.529
		c-2.215-1.615-3.945-3.715-5.192-6.298c-1.246-2.584-1.868-5.721-1.868-9.415v-31.976h-13.289V290.69h13.289v-19.933h20.764v19.933
		h18.273V307.302z"/>
	<path style="fill:#322A28;" d="M1330.247,259.958h32.67l22.563,63.954h0.277l22.702-63.954h32.531v98.008h-21.595v-75.167h-0.277
		l-25.748,75.167h-16.472l-24.779-75.167h-0.276v75.167h-21.596V259.958z"/>
	<path style="fill:#322A28;" d="M1500.512,349.523h-0.277c-2.308,3.599-5.377,6.184-9.205,7.751
		c-3.83,1.569-7.868,2.354-12.112,2.354c-3.139,0-6.16-0.44-9.067-1.316c-2.907-0.876-5.468-2.19-7.682-3.944
		c-2.215-1.752-3.969-3.921-5.261-6.507c-1.293-2.582-1.937-5.583-1.937-8.998c0-3.877,0.714-7.151,2.146-9.828
		c1.43-2.676,3.367-4.892,5.814-6.646c2.444-1.752,5.236-3.115,8.375-4.083c3.137-0.969,6.389-1.683,9.759-2.146
		c3.368-0.461,6.735-0.737,10.106-0.83c3.367-0.091,6.483-0.139,9.343-0.139c0-3.69-1.315-6.621-3.945-8.79
		c-2.63-2.169-5.745-3.253-9.343-3.253c-3.415,0-6.53,0.716-9.344,2.146c-2.816,1.432-5.33,3.39-7.544,5.883l-11.074-11.352
		c3.876-3.599,8.396-6.298,13.565-8.099c5.168-1.798,10.521-2.7,16.057-2.7c6.091,0,11.096,0.762,15.02,2.285
		c3.921,1.522,7.06,3.761,9.413,6.713c2.353,2.956,3.991,6.576,4.914,10.868c0.921,4.292,1.385,9.253,1.385,14.881v34.191h-19.103
		V349.523z M1495.39,328.482c-1.571,0-3.53,0.069-5.883,0.206c-2.353,0.139-4.616,0.533-6.783,1.177
		c-2.17,0.646-4.015,1.615-5.537,2.908c-1.524,1.293-2.285,3.093-2.285,5.397c0,2.493,1.06,4.34,3.184,5.538
		c2.123,1.2,4.337,1.8,6.645,1.8c2.029,0,3.991-0.278,5.884-0.832c1.89-0.554,3.576-1.337,5.053-2.352
		c1.475-1.015,2.651-2.306,3.529-3.877c0.876-1.569,1.315-3.413,1.315-5.538v-4.428H1495.39z"/>
	<path style="fill:#322A28;" d="M1532.626,290.69h19.934v9.137h0.277c0.645-1.291,1.568-2.582,2.768-3.877
		c1.198-1.291,2.63-2.443,4.292-3.46c1.661-1.015,3.552-1.845,5.676-2.491c2.122-0.645,4.43-0.971,6.921-0.971
		c5.26,0,9.505,0.81,12.736,2.424c3.229,1.615,5.745,3.854,7.545,6.713c1.799,2.862,3.021,6.229,3.668,10.105
		c0.645,3.877,0.969,8.077,0.969,12.597v37.099h-20.764V325.02c0-1.937-0.069-3.944-0.208-6.021
		c-0.138-2.076-0.554-3.991-1.246-5.745c-0.692-1.752-1.754-3.184-3.184-4.292c-1.432-1.108-3.484-1.661-6.16-1.661
		c-2.677,0-4.844,0.484-6.506,1.453c-1.661,0.969-2.931,2.263-3.806,3.877c-0.879,1.615-1.454,3.439-1.731,5.467
		c-0.277,2.032-0.415,4.155-0.415,6.368v33.501h-20.765V290.69z"/>
	<path style="fill:#322A28;" d="M1654.302,349.523h-0.277c-2.308,3.599-5.377,6.184-9.205,7.751
		c-3.83,1.569-7.868,2.354-12.112,2.354c-3.138,0-6.16-0.44-9.067-1.316c-2.907-0.876-5.468-2.19-7.682-3.944
		c-2.215-1.752-3.969-3.921-5.261-6.507c-1.293-2.582-1.937-5.583-1.937-8.998c0-3.877,0.714-7.151,2.146-9.828
		c1.43-2.676,3.367-4.892,5.814-6.646c2.444-1.752,5.236-3.115,8.375-4.083c3.137-0.969,6.389-1.683,9.759-2.146
		c3.368-0.461,6.735-0.737,10.105-0.83c3.367-0.091,6.483-0.139,9.343-0.139c0-3.69-1.315-6.621-3.945-8.79
		c-2.63-2.169-5.745-3.253-9.343-3.253c-3.416,0-6.53,0.716-9.344,2.146c-2.816,1.432-5.33,3.39-7.544,5.883l-11.074-11.352
		c3.876-3.599,8.396-6.298,13.565-8.099c5.168-1.798,10.52-2.7,16.057-2.7c6.091,0,11.096,0.762,15.02,2.285
		c3.921,1.522,7.06,3.761,9.413,6.713c2.353,2.956,3.99,6.576,4.914,10.868c0.922,4.292,1.385,9.253,1.385,14.881v34.191h-19.104
		V349.523z M1649.181,328.482c-1.571,0-3.53,0.069-5.883,0.206c-2.353,0.139-4.616,0.533-6.783,1.177
		c-2.17,0.646-4.015,1.615-5.537,2.908c-1.523,1.293-2.285,3.093-2.285,5.397c0,2.493,1.06,4.34,3.184,5.538
		c2.123,1.2,4.337,1.8,6.645,1.8c2.029,0,3.991-0.278,5.884-0.832c1.89-0.554,3.576-1.337,5.053-2.352
		c1.475-1.015,2.651-2.306,3.529-3.877c0.876-1.569,1.315-3.413,1.315-5.538v-4.428H1649.181z"/>
	<path style="fill:#322A28;" d="M1757.015,352.292c0,12.736-3.208,22.401-9.621,29.001c-6.415,6.597-16.174,9.897-29.277,9.897
		c-6,0-11.905-0.67-17.719-2.007c-5.814-1.339-11.167-3.946-16.057-7.821l11.49-17.166c3.229,2.676,6.621,4.797,10.174,6.368
		c3.552,1.569,7.451,2.354,11.698,2.354c6.368,0,11.05-1.548,14.051-4.639c2.998-3.091,4.499-7.037,4.499-11.834v-6.507h-0.277
		c-2.401,3.232-5.377,5.517-8.929,6.852c-3.553,1.337-6.899,2.007-10.036,2.007c-4.983,0-9.505-0.851-13.565-2.561
		c-4.062-1.706-7.545-4.104-10.452-7.198c-2.907-3.091-5.145-6.76-6.713-11.005c-1.571-4.243-2.353-8.905-2.353-13.982
		c0-4.428,0.713-8.766,2.146-13.012c1.429-4.243,3.46-7.981,6.09-11.213c2.631-3.228,5.836-5.835,9.621-7.821
		c3.783-1.984,8.074-2.977,12.874-2.977c2.952,0,5.652,0.326,8.099,0.971c2.444,0.647,4.637,1.476,6.575,2.491
		c1.937,1.017,3.599,2.146,4.983,3.39c1.385,1.246,2.492,2.472,3.322,3.67h0.277v-8.861h19.103V352.292z M1704.689,323.912
		c0,2.215,0.415,4.317,1.246,6.3c0.831,1.986,2.008,3.736,3.53,5.26c1.523,1.522,3.275,2.746,5.26,3.668
		c1.984,0.922,4.175,1.383,6.575,1.383c2.306,0,4.476-0.461,6.507-1.383c2.028-0.922,3.806-2.146,5.329-3.668
		c1.524-1.524,2.7-3.275,3.53-5.26c0.831-1.984,1.246-4.085,1.246-6.3c0-2.213-0.415-4.313-1.246-6.298
		c-0.831-1.984-2.007-3.738-3.53-5.26c-1.522-1.523-3.301-2.744-5.329-3.668c-2.031-0.921-4.201-1.384-6.507-1.384
		c-2.401,0-4.592,0.463-6.575,1.384c-1.986,0.924-3.738,2.146-5.26,3.668c-1.522,1.522-2.699,3.276-3.53,5.26
		C1705.104,319.6,1704.689,321.699,1704.689,323.912z"/>
	<path style="fill:#322A28;" d="M1837.302,346.339c-3.322,4.245-7.523,7.524-12.597,9.828c-5.077,2.306-10.337,3.462-15.781,3.462
		c-5.17,0-10.036-0.832-14.604-2.491c-4.568-1.661-8.538-4.037-11.905-7.13c-3.37-3.091-6.021-6.804-7.96-11.144
		c-1.938-4.336-2.907-9.181-2.907-14.534c0-5.351,0.969-10.196,2.907-14.536c1.938-4.336,4.59-8.051,7.96-11.144
		c3.367-3.091,7.336-5.467,11.905-7.128c4.568-1.661,9.435-2.493,14.604-2.493c4.797,0,9.157,0.832,13.081,2.493
		c3.922,1.661,7.244,4.037,9.967,7.128c2.722,3.093,4.821,6.808,6.299,11.144c1.474,4.34,2.214,9.185,2.214,14.536v6.505h-48.173
		c0.831,3.969,2.631,7.13,5.399,9.482c2.769,2.354,6.182,3.531,10.244,3.531c3.413,0,6.298-0.762,8.652-2.285
		c2.353-1.522,4.405-3.483,6.159-5.883L1837.302,346.339z M1819.722,316.715c0.091-3.506-1.062-6.507-3.461-8.998
		c-2.401-2.491-5.492-3.738-9.275-3.738c-2.308,0-4.339,0.37-6.091,1.108c-1.754,0.739-3.253,1.685-4.499,2.839
		s-2.215,2.491-2.907,4.014c-0.692,1.522-1.085,3.115-1.177,4.776H1819.722z"/>
	<path style="fill:#322A28;" d="M1853.082,290.69h20.765v10.798h0.277c2.214-4.153,4.844-7.267,7.89-9.343
		c3.045-2.078,6.873-3.116,11.489-3.116c1.198,0,2.399,0.048,3.6,0.139c1.198,0.093,2.305,0.278,3.322,0.554v18.965
		c-1.477-0.459-2.931-0.807-4.36-1.038c-1.433-0.23-2.931-0.345-4.499-0.345c-3.969,0-7.108,0.554-9.414,1.661
		c-2.308,1.108-4.083,2.653-5.33,4.637c-1.245,1.986-2.054,4.361-2.422,7.128c-0.37,2.769-0.554,5.814-0.554,9.137v28.101h-20.765
		V290.69z"/>
</g>
<g>
	<path style="fill:#E5F0F8;" d="M2104.52,1972.225c0,0,694.56-1565.289-580.033-1459.335
		c-545.916,45.381-444.004,320.694-685.111,578.292c-156.283,166.972-456.862,30.379-569.501,176.285s19.73,561.937,66.163,704.759
		H2104.52z"/>
	<g>
		<path style="fill:#40A87B;" d="M369.118,1968.607c0,0-26.736-106.648-93.381-139.561c-66.645-32.913-137.777,12.147-119.715,59.53
			c15.575,40.858,79.618-9.381,129.447,10.375c49.829,19.756,57.684,69.655,57.684,69.655H369.118z"/>
		<path style="fill:none;stroke:#6ADB6A;stroke-width:3.0031;stroke-miterlimit:10;" d="M168.905,1860.161
			c0,0,71.528-40.763,124.597-3.076c53.069,37.687,69.864,111.522,69.864,111.522"/>
		
			<line style="fill:none;stroke:#6ADB6A;stroke-width:3.0031;stroke-miterlimit:10;" x1="180.442" y1="1841.097" x2="197.083" y2="1848.352"/>
		
			<line style="fill:none;stroke:#6ADB6A;stroke-width:3.0031;stroke-miterlimit:10;" x1="204.476" y1="1825.551" x2="237.623" y2="1841.097"/>
		
			<line style="fill:none;stroke:#6ADB6A;stroke-width:3.0031;stroke-miterlimit:10;" x1="254.277" y1="1825.551" x2="271.522" y2="1845.922"/>
		
			<line style="fill:none;stroke:#6ADB6A;stroke-width:3.0031;stroke-miterlimit:10;" x1="286.964" y1="1839.203" x2="294.716" y2="1857.963"/>
		
			<line style="fill:none;stroke:#6ADB6A;stroke-width:3.0031;stroke-miterlimit:10;" x1="188.762" y1="1886.119" x2="214.31" y2="1843.854"/>
		
			<line style="fill:none;stroke:#6ADB6A;stroke-width:3.0031;stroke-miterlimit:10;" x1="233.895" y1="1880.062" x2="257.326" y2="1842.432"/>
		
			<line style="fill:none;stroke:#6ADB6A;stroke-width:3.0031;stroke-miterlimit:10;" x1="273.697" y1="1874.294" x2="308.922" y2="1869.917"/>
		
			<line style="fill:none;stroke:#6ADB6A;stroke-width:3.0031;stroke-miterlimit:10;" x1="314.706" y1="1895.637" x2="334.897" y2="1902.266"/>
	</g>
	<g>
		<path style="fill:#40A87B;" d="M2174.471,1974.423c0,0,40.421-161.238,141.18-210.998
			c100.76-49.761,208.301,18.365,180.993,90.002c-23.547,61.771-120.372-14.182-195.707,15.687
			c-75.335,29.869-87.21,105.31-87.21,105.31H2174.471z"/>
		<path style="fill:none;stroke:#6ADB6A;stroke-width:4.5403;stroke-miterlimit:10;" d="M2477.168,1810.468
			c0,0-108.141-61.629-188.375-4.651c-80.233,56.978-105.625,168.607-105.625,168.607"/>
		
			<line style="fill:none;stroke:#6ADB6A;stroke-width:4.5403;stroke-miterlimit:10;" x1="2459.726" y1="1781.645" x2="2434.566" y2="1792.614"/>
		
			<line style="fill:none;stroke:#6ADB6A;stroke-width:4.5403;stroke-miterlimit:10;" x1="2423.388" y1="1758.141" x2="2373.274" y2="1781.645"/>
		
			<line style="fill:none;stroke:#6ADB6A;stroke-width:4.5403;stroke-miterlimit:10;" x1="2348.096" y1="1758.141" x2="2322.024" y2="1788.939"/>
		
			<line style="fill:none;stroke:#6ADB6A;stroke-width:4.5403;stroke-miterlimit:10;" x1="2298.677" y1="1778.781" x2="2286.957" y2="1807.144"/>
		
			<line style="fill:none;stroke:#6ADB6A;stroke-width:4.5403;stroke-miterlimit:10;" x1="2447.146" y1="1849.712" x2="2408.521" y2="1785.813"/>
		
			<line style="fill:none;stroke:#6ADB6A;stroke-width:4.5403;stroke-miterlimit:10;" x1="2378.911" y1="1840.555" x2="2343.486" y2="1783.663"/>
		
			<line style="fill:none;stroke:#6ADB6A;stroke-width:4.5403;stroke-miterlimit:10;" x1="2318.736" y1="1831.834" x2="2265.479" y2="1825.216"/>
		
			<line style="fill:none;stroke:#6ADB6A;stroke-width:4.5403;stroke-miterlimit:10;" x1="2256.735" y1="1864.102" x2="2226.208" y2="1874.125"/>
	</g>
	<g>
		<path style="fill:#6ADB6A;" d="M2144.979,1974.893c0,0-28.522-540.461,229.621-470.814s-201.366,360.929-200.975,470.814H2144.979
			z"/>
		<path style="fill:none;stroke:#40A87B;stroke-width:4.5403;stroke-miterlimit:10;" d="M2155.411,1974.893
			c0,0,9.013-282.373,193.026-421.997"/>
		
			<line style="fill:none;stroke:#40A87B;stroke-width:4.5403;stroke-miterlimit:10;" x1="2267.729" y1="1634.772" x2="2272.326" y2="1537.401"/>
		
			<line style="fill:none;stroke:#40A87B;stroke-width:4.5403;stroke-miterlimit:10;" x1="2412.1" y1="1594.426" x2="2287.723" y2="1610.637"/>
		
			<line style="fill:none;stroke:#40A87B;stroke-width:4.5403;stroke-miterlimit:10;" x1="2363.73" y1="1677.53" x2="2232.225" y2="1692.851"/>
		
			<line style="fill:none;stroke:#40A87B;stroke-width:4.5403;stroke-miterlimit:10;" x1="2297.978" y1="1759.884" x2="2196.405" y2="1774.238"/>
		
			<line style="fill:none;stroke:#40A87B;stroke-width:4.5403;stroke-miterlimit:10;" x1="2186.661" y1="1682.934" x2="2209.942" y2="1739.497"/>
		
			<line style="fill:none;stroke:#40A87B;stroke-width:4.5403;stroke-miterlimit:10;" x1="2224.916" y1="1591.134" x2="2244.764" y2="1670.768"/>
		
			<line style="fill:none;stroke:#40A87B;stroke-width:4.5403;stroke-miterlimit:10;" x1="2164.927" y1="1777.361" x2="2183.475" y2="1814.331"/>
		
			<line style="fill:none;stroke:#40A87B;stroke-width:4.5403;stroke-miterlimit:10;" x1="2244.764" y1="1836.228" x2="2171.979" y2="1859.176"/>
	</g>
	<g>
		<path style="fill:#6ADB6A;" d="M388.625,1968.918c0,0,18.865-357.478-151.879-311.412
			c-170.744,46.066,133.19,238.73,132.931,311.412H388.625z"/>
		<path style="fill:none;stroke:#40A87B;stroke-width:3.0031;stroke-miterlimit:10;" d="M381.725,1968.918
			c0,0-5.962-186.771-127.673-279.122"/>
		
			<line style="fill:none;stroke:#40A87B;stroke-width:3.0031;stroke-miterlimit:10;" x1="307.434" y1="1743.951" x2="304.393" y2="1679.547"/>
		
			<line style="fill:none;stroke:#40A87B;stroke-width:3.0031;stroke-miterlimit:10;" x1="211.943" y1="1717.264" x2="294.21" y2="1727.987"/>
		
			<line style="fill:none;stroke:#40A87B;stroke-width:3.0031;stroke-miterlimit:10;" x1="243.936" y1="1772.232" x2="330.918" y2="1782.366"/>
		
			<line style="fill:none;stroke:#40A87B;stroke-width:3.0031;stroke-miterlimit:10;" x1="287.427" y1="1826.704" x2="354.611" y2="1836.198"/>
		
			<line style="fill:none;stroke:#40A87B;stroke-width:3.0031;stroke-miterlimit:10;" x1="361.055" y1="1775.807" x2="345.657" y2="1813.219"/>
		
			<line style="fill:none;stroke:#40A87B;stroke-width:3.0031;stroke-miterlimit:10;" x1="335.752" y1="1715.087" x2="322.624" y2="1767.76"/>
		
			<line style="fill:none;stroke:#40A87B;stroke-width:3.0031;stroke-miterlimit:10;" x1="375.431" y1="1838.264" x2="363.163" y2="1862.717"/>
		
			<line style="fill:none;stroke:#40A87B;stroke-width:3.0031;stroke-miterlimit:10;" x1="322.624" y1="1877.2" x2="370.766" y2="1892.379"/>
	</g>
	<g>
		<rect x="472.102" y="826.22" style="fill:#BBDBF3;" width="1411.73" height="1032.75"/>
		<rect x="485.216" y="839.306" style="fill:#FFFFFF;" width="1385.532" height="1006.553"/>
		<rect x="485.202" y="839.317" style="fill:#BBDBF3;" width="1385.534" height="94.861"/>
		<g>
			
				<line style="fill:none;stroke:#FFFFFF;stroke-width:8.7512;stroke-linecap:round;stroke-linejoin:round;stroke-miterlimit:10;" x1="1783.152" y1="914.033" x2="1837.725" y2="859.461"/>
			
				<line style="fill:none;stroke:#FFFFFF;stroke-width:8.7512;stroke-linecap:round;stroke-linejoin:round;stroke-miterlimit:10;" x1="1837.725" y1="914.033" x2="1783.152" y2="859.461"/>
		</g>
		<g>
			<g>
				<polyline style="fill:none;stroke:#BBDBF3;stroke-width:3.1092;stroke-linecap:round;stroke-linejoin:round;" points="
					1177.968,1194.057 1177.968,1203.384 1168.641,1203.384 				"/>
				
					<line style="fill:none;stroke:#BBDBF3;stroke-width:3.1092;stroke-linecap:round;stroke-linejoin:round;stroke-dasharray:18.858,18.858;" x1="1149.783" y1="1203.384" x2="555.757" y2="1203.384"/>
				<polyline style="fill:none;stroke:#BBDBF3;stroke-width:3.1092;stroke-linecap:round;stroke-linejoin:round;" points="
					546.328,1203.384 537,1203.384 537,1194.057 				"/>
				
					<line style="fill:none;stroke:#BBDBF3;stroke-width:3.1092;stroke-linecap:round;stroke-linejoin:round;stroke-dasharray:20.6507,20.6507;" x1="537" y1="1173.406" x2="537" y2="1142.43"/>
				<polyline style="fill:none;stroke:#BBDBF3;stroke-width:3.1092;stroke-linecap:round;stroke-linejoin:round;" points="
					537,1132.104 537,1122.777 546.328,1122.777 				"/>
				
					<line style="fill:none;stroke:#BBDBF3;stroke-width:3.1092;stroke-linecap:round;stroke-linejoin:round;stroke-dasharray:18.858,18.858;" x1="565.186" y1="1122.777" x2="1159.212" y2="1122.777"/>
				<polyline style="fill:none;stroke:#BBDBF3;stroke-width:3.1092;stroke-linecap:round;stroke-linejoin:round;" points="
					1168.641,1122.777 1177.968,1122.777 1177.968,1132.104 				"/>
				
					<line style="fill:none;stroke:#BBDBF3;stroke-width:3.1092;stroke-linecap:round;stroke-linejoin:round;stroke-dasharray:20.6507,20.6507;" x1="1177.968" y1="1152.755" x2="1177.968" y2="1183.731"/>
			</g>
		</g>
		<rect x="537" y="981.677" style="fill:#E5F0F8;" width="151.409" height="22.804"/>
		<rect x="738.982" y="981.677" style="fill:#E5F0F8;" width="151.409" height="22.804"/>
		<rect x="940.965" y="981.677" style="fill:#E5F0F8;" width="151.409" height="22.804"/>
		<rect x="1142.947" y="981.677" style="fill:#E5F0F8;" width="151.409" height="22.804"/>
		<rect x="1344.929" y="981.677" style="fill:#E5F0F8;" width="151.409" height="22.804"/>
		<rect x="1678.367" y="963.861" style="fill:#BBDBF3;" width="140.492" height="58.436"/>
		<g>
			<rect x="537.013" y="1689.441" style="fill:#E5F0F8;" width="257.414" height="156.418"/>
			<rect x="546.798" y="1699.771" style="fill:#FFFFFF;" width="237.843" height="146.089"/>
			<polygon style="fill:#E5F0F8;" points="614.029,1802.579 649.003,1845.859 578.36,1845.859 			"/>
			<polygon style="fill:#E5F0F8;" points="768.604,1845.859 670.266,1845.859 727.922,1748.578 			"/>
			
				<ellipse transform="matrix(0.2286 -0.9735 0.9735 0.2286 -1184.4318 1993.5671)" style="fill:#E5F0F8;" cx="665.708" cy="1744.15" rx="12.038" ry="12.038"/>
		</g>
		<g>
			<rect x="1561.446" y="1689.441" style="fill:#E5F0F8;" width="257.414" height="156.418"/>
			<rect x="1571.231" y="1699.771" style="fill:#FFFFFF;" width="237.843" height="146.089"/>
			<polygon style="fill:#E5F0F8;" points="1638.461,1802.579 1673.436,1845.859 1602.792,1845.859 			"/>
			<polygon style="fill:#E5F0F8;" points="1793.037,1845.859 1694.698,1845.859 1752.354,1748.578 			"/>
			
				<ellipse transform="matrix(0.2298 -0.9732 0.9732 0.2298 -395.6561 2988.3672)" style="fill:#E5F0F8;" cx="1690.152" cy="1744.15" rx="12.038" ry="12.038"/>
		</g>
		<g>
			<rect x="1219.978" y="1689.441" style="fill:#E5F0F8;" width="257.384" height="156.418"/>
			<rect x="1229.733" y="1699.771" style="fill:#FFFFFF;" width="237.874" height="146.089"/>
			<polygon style="fill:#E5F0F8;" points="1296.994,1802.579 1331.968,1845.859 1261.325,1845.859 			"/>
			<polygon style="fill:#E5F0F8;" points="1451.57,1845.859 1353.231,1845.859 1410.887,1748.578 			"/>
			
				<ellipse transform="matrix(0.7071 -0.7071 0.7071 0.7071 -838.2836 1464.504)" style="fill:#E5F0F8;" cx="1348.671" cy="1744.15" rx="12.038" ry="12.038"/>
		</g>
		<g>
			<rect x="878.481" y="1689.441" style="fill:#E5F0F8;" width="257.414" height="156.418"/>
			<rect x="888.266" y="1699.771" style="fill:#FFFFFF;" width="237.843" height="146.089"/>
			<polygon style="fill:#E5F0F8;" points="955.496,1802.579 990.47,1845.859 919.827,1845.859 			"/>
			<polygon style="fill:#E5F0F8;" points="1110.072,1845.859 1011.733,1845.859 1069.389,1748.578 			"/>
			
				<ellipse transform="matrix(0.1596 -0.9872 0.9872 0.1596 -875.3392 2460.0935)" style="fill:#E5F0F8;" cx="1007.189" cy="1744.15" rx="12.038" ry="12.037"/>
		</g>
		<rect x="537" y="1276.812" style="fill:#E5F0F8;" width="302.895" height="37.465"/>
		<rect x="865.802" y="1276.812" style="fill:#E5F0F8;" width="139.426" height="37.465"/>
		<rect x="537" y="1342.595" style="fill:#E5F0F8;" width="195.942" height="37.464"/>
		<rect x="758.864" y="1342.595" style="fill:#E5F0F8;" width="319.664" height="37.464"/>
		<g>
			<rect x="537" y="1418.146" style="fill:#E5F0F8;" width="52.501" height="16.549"/>
			<rect x="596.871" y="1418.146" style="fill:#E5F0F8;" width="207.384" height="16.549"/>
			<rect x="812.493" y="1418.146" style="fill:#E5F0F8;" width="179.618" height="16.549"/>
			<rect x="999.486" y="1418.146" style="fill:#E5F0F8;" width="186.549" height="16.549"/>
			<rect x="537" y="1449.74" style="fill:#E5F0F8;" width="108.901" height="16.549"/>
			<rect x="654.353" y="1449.74" style="fill:#E5F0F8;" width="194.588" height="16.549"/>
			<rect x="857.393" y="1449.74" style="fill:#E5F0F8;" width="328.641" height="16.549"/>
			<rect x="537" y="1481.333" style="fill:#E5F0F8;" width="167.031" height="16.549"/>
			<rect x="710.973" y="1481.333" style="fill:#E5F0F8;" width="236.452" height="16.549"/>
			<rect x="956.535" y="1481.333" style="fill:#E5F0F8;" width="229.499" height="16.549"/>
			<rect x="537" y="1512.926" style="fill:#E5F0F8;" width="204.636" height="16.549"/>
		</g>
		<rect x="1599.341" y="1645.11" style="fill:#E5F0F8;" width="181.621" height="16.594"/>
		<rect x="1257.859" y="1645.11" style="fill:#E5F0F8;" width="181.621" height="16.594"/>
		<rect x="916.378" y="1645.11" style="fill:#E5F0F8;" width="181.621" height="16.594"/>
		<rect x="574.896" y="1645.11" style="fill:#E5F0F8;" width="181.621" height="16.594"/>
		<g>
			
				<rect x="569.908" y="1074.793" style="fill:#FFFFFF;stroke:#BBDBF3;stroke-width:4.926;stroke-miterlimit:10;" width="640.967" height="80.607"/>
			
				<rect x="1050.156" y="1074.793" style="fill:#BBDBF3;stroke:#BBDBF3;stroke-width:4.313;stroke-miterlimit:10;" width="160.718" height="80.607"/>
			<path style="fill:#FFFFFF;" d="M1102.732,1131.483c11.572,6.466,25.84,3.28,33.826-6.784l42.955,24.001l4.159-7.444
				l-42.949-23.998c4.417-12.081-0.367-25.889-11.958-32.366c-12.856-7.183-29.139-2.621-36.323,10.235
				C1085.258,1107.984,1089.875,1124.3,1102.732,1131.483z M1125.935,1089.956c10.012,5.594,13.627,18.363,8.033,28.375
				c-5.626,10.069-18.363,13.626-28.375,8.032c-10.068-5.626-13.658-18.306-8.032-28.375
				C1103.155,1087.976,1115.867,1084.33,1125.935,1089.956z"/>
		</g>
		
			<rect x="1228.182" y="1122.777" style="fill:none;stroke:#BBDBF3;stroke-width:3.1092;stroke-linecap:round;stroke-linejoin:round;stroke-miterlimit:10;stroke-dasharray:18.6551;" width="590.676" height="470.65"/>
		<g>
			
				<rect x="1400.903" y="988.604" transform="matrix(-1.836970e-16 1 -1 -1.836970e-16 2920.1704 -352.286)" style="fill:#E5F0F8;" width="470.65" height="590.676"/>
			<rect x="1363.343" y="1072.352" style="fill:#FFFFFF;" width="545.774" height="423.181"/>
			<polygon style="fill:#E5F0F8;" points="1363.343,1495.533 1517.637,1308.238 1626.031,1442.441 1778.97,1184.358 
				1909.117,1495.533 			"/>
			<circle style="fill:#E5F0F8;" cx="1636.23" cy="1174.181" r="27.622"/>
		</g>
	</g>
	<g>
		<g>
			<polygon style="fill:#FFFFFF;" points="2143.866,836.354 2135.19,826.167 2125.069,834.919 2116.394,824.733 2106.273,833.484 
				2097.574,823.296 2087.453,832.048 2078.754,821.86 2068.633,830.611 2059.958,820.425 2049.813,829.175 2041.114,818.987 
				2030.97,827.736 2031.331,823.002 2079.968,751.02 2106.008,712.495 2125.875,754.524 2163.023,833.054 2162.662,837.788 
				2153.987,827.602 			"/>
			<polygon style="fill:#BBDBF3;" points="2102.213,1629.754 1970.521,1619.702 2030.97,827.736 2041.114,818.987 2049.813,829.175 
				2059.958,820.425 2068.633,830.611 2078.754,821.86 2087.453,832.048 2097.574,823.296 2106.273,833.484 2116.394,824.733 
				2125.069,834.919 2135.19,826.167 2143.866,836.354 2153.987,827.602 2162.662,837.788 			"/>
			<polygon style="fill:#BBDBF3;" points="2125.875,754.524 2079.968,751.02 2106.008,712.495 			"/>
			<path style="fill:#ADD0FA;" d="M1963.34,1638.423l5.853-76.682c0.336-4.399,4.174-7.693,8.573-7.358l127.199,9.709
				c4.399,0.336,7.693,4.174,7.357,8.573l-5.853,76.682c-0.336,4.399-4.174,7.693-8.573,7.358l-127.199-9.709
				C1966.298,1646.661,1963.004,1642.822,1963.34,1638.423z"/>
			
				<line style="fill:none;stroke:#E5F0F8;stroke-width:2.0544;stroke-miterlimit:10;" x1="2143.887" y1="854.099" x2="2091.68" y2="1538.076"/>
			
				<line style="fill:none;stroke:#E5F0F8;stroke-width:2.0544;stroke-miterlimit:10;" x1="2099.382" y1="898.287" x2="2056.601" y2="1458.779"/>
			
				<line style="fill:none;stroke:#E5F0F8;stroke-width:2.0544;stroke-miterlimit:10;" x1="2054.882" y1="847.306" x2="2002.675" y2="1531.282"/>
		</g>
		<g>
			<polygon style="fill:#F9ECB8;" points="1836.876,784.699 1826.423,776.347 1818.15,786.862 1807.697,778.51 1799.423,789.026 
				1788.947,780.677 1780.673,791.192 1770.197,782.843 1761.923,793.358 1751.47,785.006 1743.174,795.524 1732.697,787.175 
				1724.4,797.693 1723.855,792.976 1757.926,713.063 1776.171,670.292 1803.663,707.779 1855.058,777.819 1855.603,782.536 
				1845.15,774.184 			"/>
			<polygon style="fill:#F9E181;" points="1946.756,1571.557 1815.554,1586.714 1724.4,797.693 1732.697,787.175 1743.174,795.524 
				1751.47,785.006 1761.923,793.358 1770.197,782.843 1780.673,791.192 1788.947,780.677 1799.423,789.026 1807.697,778.51 
				1818.15,786.862 1826.423,776.347 1836.876,784.699 1845.15,774.184 1855.603,782.536 			"/>
			<polygon style="fill:#F9E181;" points="1803.663,707.779 1757.926,713.063 1776.171,670.292 			"/>
			<path style="fill:#ADD0FA;" d="M1812.061,1606.459l-8.826-76.397c-0.506-4.383,2.636-8.346,7.019-8.853l126.726-14.64
				c4.383-0.506,8.346,2.636,8.853,7.019l8.826,76.397c0.506,4.383-2.636,8.346-7.019,8.853l-126.726,14.64
				C1816.531,1613.984,1812.567,1610.842,1812.061,1606.459z"/>
			
				<line style="fill:none;stroke:#F2BB16;stroke-width:2.0544;stroke-miterlimit:10;" x1="1840.269" y1="802.118" x2="1918.993" y2="1483.551"/>
			
				<line style="fill:none;stroke:#F2BB16;stroke-width:2.0544;stroke-miterlimit:10;" x1="1804.972" y1="853.958" x2="1869.484" y2="1412.365"/>
			
				<line style="fill:none;stroke:#F2BB16;stroke-width:2.0544;stroke-miterlimit:10;" x1="1751.595" y1="812.362" x2="1830.319" y2="1493.795"/>
		</g>
		<g>
			
				<rect x="1879.423" y="693.924" transform="matrix(-1 0.0097 -0.0097 -1 3801.1809 1429.7466)" style="fill:#586773;" width="35.391" height="60.362"/>
			<polygon style="fill:#BBDBF3;" points="1989.114,821.563 1995.465,1475.104 1960.663,1475.442 1950.332,821.941 			"/>
			<polygon style="fill:#93ACBF;" points="1960.663,1475.442 1927.327,1475.766 1912.132,822.312 1950.332,821.941 			"/>
			<path style="fill:#FFFFFF;" d="M1948.946,644.799c24.591-0.238,44.866,19.646,45.106,44.325l2.337,240.608l-44.346,0.431
				l-4.51-285.278C1948.007,644.866,1948.469,644.804,1948.946,644.799z"/>
			<path style="fill:#BBDBF3;" d="M1947.533,644.885l4.51,285.278l-45.083,0.438l-2.338-240.608
				c-0.12-12.295,4.812-23.579,12.783-31.794C1925.152,650.385,1935.801,645.373,1947.533,644.885z"/>
			<path style="fill:#93ACBF;" d="M1908.624,939.952l86.282-0.838c2.747-0.027,4.953-2.276,4.926-5.023l-0.085-8.782
				c-0.027-2.747-2.276-4.953-5.023-4.926l-86.282,0.838c-2.747,0.027-4.953,2.276-4.926,5.023l0.085,8.783
				C1903.628,937.773,1905.877,939.979,1908.624,939.952z"/>
			<path style="fill:#93ACBF;" d="M1877.123,941.986l18.346-0.178c0.861-0.008,1.552-0.713,1.544-1.574l-0.22-22.639
				c-0.008-0.861-0.713-1.552-1.574-1.544l-18.346,0.178c-0.861,0.008-1.552,0.713-1.544,1.574l0.22,22.639
				C1875.557,941.303,1876.262,941.994,1877.123,941.986z"/>
			<path style="fill:#93ACBF;" d="M1886.486,941.895l-7.909,0.077c-1.657,0.016-3.026-1.327-3.042-2.984l-2.501-257.393
				c-0.016-1.657,1.327-3.026,2.984-3.042l7.909-0.077c1.657-0.016,3.026,1.327,3.042,2.984l2.501,257.393
				C1889.486,940.51,1888.143,941.878,1886.486,941.895z"/>
			<polygon style="fill:#7FACE3;" points="1951.679,1563.484 1962.678,1602.921 1972.821,1563.278 			"/>
			<polygon style="fill:#7FACE3;" points="1962.054,1563.383 1951.68,1563.484 1927.295,1475.786 1960.664,1475.463 			"/>
			<polygon style="fill:#A6C9F1;" points="1995.496,1475.124 1972.82,1563.278 1962.054,1563.383 1960.664,1475.463 			"/>
			<path style="fill:#89A5C7;" d="M1924.649,1475.791l73.492-0.714c1.897-0.018,3.435-1.586,3.416-3.483l-0.033-3.377
				c-0.019-1.897-1.586-3.435-3.483-3.416l-73.492,0.714c-1.897,0.018-3.435,1.586-3.416,3.483l0.033,3.377
				C1921.184,1474.272,1922.752,1475.81,1924.649,1475.791z"/>
		</g>
		<polygon style="fill:#088CFC;" points="2072.096,1964.075 1753.936,1964.075 1743.209,1208.51 2082.823,1208.51 		"/>
		<g>
			<defs>
				<polygon id="SVGID_1_" points="2147.559,1964.075 1829.399,1964.075 1818.672,1208.51 2158.286,1208.51 				"/>
			</defs>
			<use xlink:href="#SVGID_1_"  style="overflow:visible;fill:#2EC6FC;"/>
			<clipPath id="SVGID_00000016064138506069516770000001649298147575879576_">
				<use xlink:href="#SVGID_1_"  style="overflow:visible;"/>
			</clipPath>
			<g style="clip-path:url(#SVGID_00000016064138506069516770000001649298147575879576_);">
				<path style="fill:none;stroke:#088CFC;stroke-width:2.5635;stroke-miterlimit:10;" d="M2134.971,1141.996
					c-85.247,94.625-213.086,243.263-137.608,308.872c73.594,63.971,198.447-105.118,222.272-199.107"/>
				<path style="fill:none;stroke:#088CFC;stroke-width:2.5635;stroke-miterlimit:10;" d="M2009.512,1180.601
					c0,0-137.447,127.312-100.761,291.006c53.91,240.55-52.126,354.82-107.742,382.227"/>
				<path style="fill:none;stroke:#088CFC;stroke-width:2.5635;stroke-miterlimit:10;" d="M1954.58,1180.601
					c0,0-89.456,64.396-112.429,183.285c-22.973,118.89,20.153,249.827-40.8,319.014"/>
				<path style="fill:none;stroke:#088CFC;stroke-width:2.5635;stroke-miterlimit:10;" d="M2191.182,1471.608
					c-3.314-0.845-159.083,8.867-200.327,175.9s-75.54,328.659-166.174,379.969"/>
				<path style="fill:none;stroke:#088CFC;stroke-width:2.5635;stroke-miterlimit:10;" d="M2191.182,1587.09
					c-7.852,0.402-129.695,22.642-164.076,221.252s91.063,116.97,100.385,5.784c9.322-111.186,102.389-153.11,102.389-153.11"/>
			</g>
		</g>
		<path style="fill:none;stroke:#FFF9F5;stroke-width:5.1061;stroke-miterlimit:10;" d="M1889.274,1268.551l-2.488,14.514
			c-0.785,4.578-5.173,7.682-9.751,6.897h0c-4.578-0.785-7.682-5.173-6.897-9.751l2.488-14.514l-1.061,6.19l5.512-32.159
			c1.569-9.157,10.345-15.364,19.502-13.795l0,0c9.157,1.569,15.364,10.345,13.795,19.502l-3.829,22.34l3.707-21.629l-9.983,58.242
			c-2.415,14.087-15.916,23.637-30.003,21.223l0,0c-14.087-2.415-23.637-15.916-21.223-30.003l16.536-96.476
			c2.415-14.087,15.916-23.638,30.003-21.223l0,0c14.087,2.415,23.638,15.916,21.223,30.003"/>
	</g>
	<g>
		<path style="fill:#93ACBF;" d="M1163.881,635.183c0,0,1.249,0.246,3.674,0.562c13.529,1.857,62.843,6.769,117.348-11.084
			c23.47-7.699,47.874-19.593,70.816-37.778c72.936-57.851,257.325-67.826,309.834-69.528c7.615-0.229,13.77,6.121,13.301,13.706
			l-4.195,68.162c-0.398,6.68,4.331,12.586,10.95,13.567l52.026,7.88c6.764,1.064,11.566,7.147,10.92,13.994l-6.024,65.639
			c-0.647,6.847-6.532,12.012-13.346,11.75c-106.184-3.854-192.028-10.509-288.349,55.166
			c-59.469,40.556-111.082,54.708-141.508,59.576c-18.427,2.963-29.049,2.544-29.049,2.544l-103.134-188.215L1163.881,635.183z"/>
		<g>
			<path style="fill:#BBDBF3;" d="M1280.088,813.651c-5.238,0.551-10.456,0.997-15.985,1.169c-3.153,0.133-6.315-1.727-6.389-3.955
				l1.117-33.941c-0.075-2.231,1.391-3.988,3.942-4.088c4.112-0.123,8.513-0.493,12.865-0.954c2.567-0.218,4.919,1.206,5.204,3.43
				l4.303,33.686C1285.425,811.181,1283.208,813.373,1280.088,813.651z"/>
			<path style="fill:#BBDBF3;" d="M1324.681,805.36c-4.975,1.273-9.952,2.534-15.017,3.523c-2.991,0.628-5.751-0.635-6.164-2.818
				l-6.417-33.348c-0.413-2.183,1.355-4.398,3.95-4.944c4.407-0.85,8.777-1.969,13.148-3.086c2.582-0.649,5.16,0.569,5.75,2.679
				l9.009,32.743C1329.546,802.28,1327.634,804.616,1324.681,805.36z"/>
			<path style="fill:#BBDBF3;" d="M1367.327,791.422c-4.73,1.914-9.492,3.75-14.357,5.339c-2.865,0.986-5.751,0.072-6.445-2.039
				l-10.681-32.237c-0.693-2.111,0.796-4.53,3.328-5.399c4.313-1.397,8.546-3.037,12.758-4.746c2.495-0.986,5.206-0.118,6.055,1.935
				l12.898,31.415C1371.733,787.743,1370.141,790.311,1367.327,791.422z"/>
			<path style="fill:#BBDBF3;" d="M1407.901,772.723l-13.598,6.931c-2.684,1.375-5.724,0.653-6.643-1.333l-14.372-30.769
				c-0.948-2.045,0.323-4.475,2.716-5.708l12.181-6.213c2.421-1.176,5.161-0.74,6.238,1.211l16.338,29.771
				C1411.83,768.554,1410.611,771.393,1407.901,772.723z"/>
			<path style="fill:#BBDBF3;" d="M1446.055,749.762l-12.786,8.248c-2.529,1.625-5.507,1.409-6.663-0.502l-17.645-29.016
				c-1.144-1.891-0.242-4.629,2.028-6.092l11.533-7.433c2.257-1.451,5.527-1.409,6.691,0.484l18.851,28.247
				C1449.23,745.594,1448.595,748.119,1446.055,749.762z"/>
			<path style="fill:#BBDBF3;" d="M1480.243,729.178l-11.828,6.607c-2.328,1.301-5.154,0.794-6.292-1.091l-17.453-29.131
				c-1.159-1.92,0.069-4.656,2.722-6.144l13.441-7.492c2.696-1.416,5.767-0.808,6.744,1.162l15.195,30.37
				C1483.768,725.47,1482.597,727.94,1480.243,729.178z"/>
			<path style="fill:#BBDBF3;" d="M1516.351,713.454c-4.287,1.328-8.348,3.277-12.538,4.874c-2.456,0.99-5.166,0.138-6.053-1.899
				l-13.452-31.181c-0.887-2.037,0.693-4.622,3.529-5.769c4.814-1.853,9.503-4.043,14.427-5.598c2.902-0.972,5.825-0.048,6.528,2.06
				l10.835,32.185C1520.33,710.234,1518.864,712.622,1516.351,713.454z"/>
			<path style="fill:#BBDBF3;" d="M1554.32,702.906c-4.418,0.922-8.863,1.752-13.168,3.028c-2.562,0.688-5.12-0.493-5.712-2.634
				l-8.957-32.757c-0.593-2.141,1.319-4.519,4.271-5.308c4.958-1.443,9.996-2.409,15.021-3.457c2.98-0.62,5.729,0.65,6.141,2.834
				l6.382,33.355C1558.708,700.151,1556.928,702.364,1554.32,702.906z"/>
			<path style="fill:#BBDBF3;" d="M1593.775,697.095l-13.644,1.46c-2.687,0.281-5.062-1.073-5.384-3.302l-4.714-33.631
				c-0.314-2.169,1.858-4.424,4.847-4.743l15.128-1.62c2.991-0.346,5.53,1.394,5.704,3.577l2.658,33.855
				C1598.549,694.937,1596.453,696.777,1593.775,697.095z"/>
			<path style="fill:#BBDBF3;" d="M1634.404,695.197c-4.71-0.033-9.335,0.196-13.989,0.331c-2.747,0.089-5.055-1.639-5.155-3.858
				l-1.463-33.928c-0.099-2.22,2.218-4.098,5.175-4.195c4.987-0.147,10-0.384,14.937-0.353c2.934-0.017,5.32,1.771,5.329,3.993
				l0.171,33.959C1639.418,693.369,1637.177,695.182,1634.404,695.197z"/>
			<path style="fill:#BBDBF3;" d="M1675.876,695.684l-14.263-0.351c-2.797-0.041-5.04-1.876-5.01-4.097l0.481-33.956
				c0.03-2.222,2.413-3.988,5.323-3.945l14.665,0.361c2.888,0.082,5.171,1.95,5.1,4.17l-1.066,33.943
				C1681.036,694.029,1678.694,695.765,1675.876,695.684z"/>
			<path style="fill:#BBDBF3;" d="M1718.003,697.159l-14.479-0.542c-2.838-0.102-5.073-1.985-4.993-4.205l1.239-33.937
				c0.081-2.22,2.47-3.937,5.335-3.834l14.437,0.541c2.847,0.107,5.09,1.993,5.01,4.214l-1.232,33.937
				C1723.239,695.552,1720.859,697.266,1718.003,697.159z"/>
		</g>
		<g>
			<path style="fill:#BBDBF3;" d="M1199.192,704.767c-5.381,0.077-10.726,0.036-16.388-0.368c-1.619-0.085-3.245-0.711-4.311-1.545
				c-1.008-0.821-2.096-2-1.833-3.08l4.874-33.608c0.266-1.094,0.329-2.082,1.197-2.734c0.81-0.659,1.771-0.995,3.024-0.935
				c4.031,0.294,8.411,0.335,12.744,0.27c2.549,0.025,4.756,1.621,4.849,3.87l1.398,33.931
				C1204.838,702.759,1202.396,704.781,1199.192,704.767z"/>
			<path style="fill:#BBDBF3;" d="M1245.174,699.743c-5.152,0.945-10.286,1.962-15.518,2.576c-3.09,0.42-5.798-1.034-6.048-3.242
				l-3.942-33.73c-0.25-2.208,1.661-4.289,4.267-4.642c4.427-0.503,8.825-1.396,13.231-2.197c2.605-0.436,5.085,0.859,5.553,3.001
				l7.11,33.207C1250.31,696.914,1248.24,699.217,1245.174,699.743z"/>
			<path style="fill:#BBDBF3;" d="M1289.248,687.613c-4.916,1.696-9.781,3.527-14.824,4.875c-2.968,0.863-5.855-0.176-6.448-2.317
				l-9.17-32.698c-0.593-2.141,0.996-4.48,3.55-5.219c4.358-1.143,8.586-2.763,12.856-4.231c2.517-0.879,5.195,0.097,5.98,2.176
				l11.904,31.805C1293.881,684.081,1292.159,686.594,1289.248,687.613z"/>
			<path style="fill:#BBDBF3;" d="M1330.988,669.576l-13.987,6.753c-2.747,1.37-5.755,0.712-6.66-1.354l-13.707-31.071
				c-0.878-2.004,0.389-4.516,2.784-5.724l12.267-5.913c2.361-1.278,5.108-0.781,6.168,1.18l16.077,29.913
				C1334.984,665.308,1333.686,668.124,1330.988,669.576z"/>
			<path style="fill:#BBDBF3;" d="M1369.67,646.399l-12.886,8.256c-2.575,1.643-5.594,1.431-6.743-0.471l-17.63-29.025
				c-1.148-1.902-0.24-4.623,2.031-6.076l11.664-7.459c2.513-1.639,5.544-1.464,6.767,0.391l18.753,28.312
				C1372.85,642.182,1371.974,644.901,1369.67,646.399z"/>
			<path style="fill:#BBDBF3;" d="M1404.356,625.065c-4.068,2.19-8.002,4.668-12.012,6.983c-2.358,1.39-5.214,0.981-6.377-0.912
				l-17.716-28.972c-1.163-1.893-0.004-4.67,2.59-6.2c4.401-2.547,8.706-5.24,13.189-7.659c2.67-1.415,5.684-0.972,6.731,0.987
				l16.067,29.919C1407.875,621.169,1406.769,623.792,1404.356,625.065z"/>
			<path style="fill:#BBDBF3;" d="M1440.711,607.368c-4.289,1.653-8.422,3.699-12.594,5.648c-2.462,1.156-5.247,0.472-6.219-1.526
				l-14.793-30.569c-0.972-1.998,0.462-4.662,3.204-5.95c4.631-2.163,9.22-4.413,13.997-6.274c2.806-1.157,5.759-0.424,6.594,1.635
				l12.844,31.437C1444.579,603.829,1443.222,606.336,1440.711,607.368z"/>
			<path style="fill:#BBDBF3;" d="M1478.615,593.712c-4.38,1.379-8.839,2.523-13.129,4.171c-2.555,0.911-5.235-0.048-5.985-2.139
				l-11.396-31.99c-0.751-2.091,0.96-4.612,3.823-5.629c4.795-1.819,9.756-3.124,14.645-4.656c2.908-0.879,5.754,0.145,6.356,2.283
				l9.294,32.663C1482.826,590.554,1481.211,592.926,1478.615,593.712z"/>
			<path style="fill:#BBDBF3;" d="M1517.843,584.188l-13.551,2.768c-2.678,0.508-5.199-0.59-5.726-2.786l-7.816-33.048
				c-0.51-2.124,1.435-4.593,4.406-5.166l15.009-3.065c2.963-0.627,5.693,0.867,6.064,3.024l5.802,33.46
				C1522.415,581.596,1520.505,583.618,1517.843,584.188z"/>
			<path style="fill:#BBDBF3;" d="M1558.152,578.706c-4.668,0.302-9.252,0.977-13.87,1.498c-2.724,0.325-5.174-1.198-5.471-3.399
				l-4.471-33.664c-0.297-2.202,1.882-4.278,4.867-4.635c5.036-0.572,10.074-1.295,15.107-1.63c2.982-0.247,5.544,1.349,5.722,3.564
				l2.771,33.846C1562.983,576.501,1560.9,578.481,1558.152,578.706z"/>
			<path style="fill:#BBDBF3;" d="M1599.21,576.523c-4.705,0.121-9.436,0.112-14.105,0.411c-2.767,0.138-5.104-1.551-5.22-3.769
				l-1.709-33.917c-0.115-2.219,2.204-4.137,5.179-4.284c5.031-0.313,10.021-0.312,15.03-0.439c2.964-0.06,5.386,1.693,5.41,3.915
				l0.413,33.957C1604.231,574.619,1601.994,576.466,1599.21,576.523z"/>
			<path style="fill:#BBDBF3;" d="M1640.772,576.826l-14.263-0.381c-2.799-0.014-5.052-1.826-5.031-4.048l0.344-33.958
				c0.02-2.222,2.428-4.01,5.379-3.994l14.876,0.396c2.937,0.079,5.25,1.943,5.167,4.164l-1.232,33.937
				C1645.93,575.162,1643.584,576.901,1640.772,576.826z"/>
		</g>
		<path style="fill:#586773;" d="M1167.555,635.746c13.529,1.857,62.843,6.769,117.348-11.084l14.424,202.134
			c-18.427,2.963-29.049,2.544-29.049,2.544l-103.134-188.215L1167.555,635.746z"/>
		<path style="fill:#BBDBF3;" d="M1087.205,635.556c20.273,2.951,47.277,3.072,76.663-0.385c29.385-3.456,55.624-9.84,74.658-17.414
			l33.729-3.967l-2.59-22.02c-1.984-16.864-52.567-24.774-112.98-17.668c-60.415,7.106-107.782,26.538-105.798,43.402l2.59,22.02
			L1087.205,635.556z"/>
		
			<ellipse transform="matrix(0.9932 -0.1168 0.1168 0.9932 -65.2439 140.1364)" style="fill:#E5F0F8;" cx="1162.866" cy="626.656" rx="110.143" ry="30.746"/>
		<path style="fill:#586773;" d="M1100.407,625.587c15.039-5.253,36.591-10.356,60.833-13.2c13.447-1.565,26.24-2.287,37.705-2.297
			c10.882-0.071,20.505,0.475,28.249,1.515c12.404,1.527,20.099,4.18,20.461,7.279l26.971,229.533l1.597,13.561l-169.038,19.868
			l-28.578-243.042C1078.202,635.373,1086.532,630.42,1100.407,625.587z"/>
		<path style="fill:#93ACBF;" d="M1100.407,625.587c15.039-5.253,36.591-10.356,60.833-13.2c13.447-1.565,26.24-2.287,37.705-2.297
			c10.882-0.071,20.505,0.475,28.249,1.515c12.404,1.527,20.099,4.18,20.461,7.279l26.971,229.533l-146.013,17.164L1100.407,625.587
			z"/>
		<path style="fill:#BBDBF3;" d="M1301.131,859.06l-2.81-23.889c-1.078-9.162-50.927-10.828-111.341-3.722
			c-60.413,7.106-108.515,20.294-107.437,29.456l2.81,23.889L1301.131,859.06z"/>
		
			<ellipse transform="matrix(0.9932 -0.1168 0.1168 0.9932 -93.6989 145.1894)" style="fill:#E5F0F8;" cx="1191.741" cy="871.927" rx="110.144" ry="16.703"/>
		<path style="fill:#BBDBF3;" d="M1202.751,620.992l-9.824,0.067c-1.459,0.01-2.586,1.286-2.416,2.735l3.101,26.36
			c0.146,1.24,1.201,2.171,2.449,2.163l9.824-0.066c1.459-0.01,2.586-1.286,2.416-2.735l-3.101-26.36
			C1205.054,621.916,1203.999,620.984,1202.751,620.992z"/>
		<path style="fill:#BBDBF3;" d="M1238.946,624.375l-10.037-1.747c-1.614-0.281-3.043,1.072-2.852,2.699l3.079,26.179
			c0.126,1.076,0.945,1.941,2.012,2.127l10.037,1.747c1.614,0.281,3.043-1.072,2.852-2.699l-3.079-26.179
			C1240.832,625.426,1240.013,624.561,1238.946,624.375z"/>
		<path style="fill:#BBDBF3;" d="M1122.755,630.402l9.571-2.215c1.422-0.329,2.814,0.651,2.984,2.1l3.101,26.36
			c0.146,1.24-0.664,2.391-1.88,2.672l-9.571,2.215c-1.422,0.329-2.814-0.65-2.984-2.1l-3.101-26.36
			C1120.729,631.834,1121.539,630.684,1122.755,630.402z"/>
		<path style="fill:#BBDBF3;" d="M1088.333,642.091l9.358-4.028c1.505-0.648,3.209,0.336,3.4,1.963l3.079,26.179
			c0.127,1.076-0.469,2.107-1.464,2.535l-9.358,4.028c-1.505,0.648-3.209-0.336-3.4-1.963l-3.079-26.179
			C1086.742,643.551,1087.338,642.519,1088.333,642.091z"/>
		<path style="fill:#BBDBF3;" d="M1157.553,623.281l9.697-1.141c1.343-0.158,2.56,0.803,2.718,2.146l3.104,26.39
			c0.158,1.343-0.803,2.56-2.146,2.718l-9.697,1.141c-1.343,0.158-2.56-0.803-2.718-2.146l-3.104-26.39
			C1155.249,624.656,1156.21,623.439,1157.553,623.281z"/>
		<path style="fill:#BBDBF3;" d="M1142.203,798.474l10.58-1.842c1.114-0.194,2.162,0.587,2.294,1.71l3.215,27.336
			c0.122,1.038-0.588,1.991-1.618,2.17l-10.58,1.843c-1.114,0.194-2.162-0.587-2.294-1.71l-3.215-27.336
			C1140.463,799.606,1141.173,798.653,1142.203,798.474z"/>
		<path style="fill:#BBDBF3;" d="M1107.74,807.69l10.463-2.838c1.161-0.315,2.331,0.476,2.472,1.671l3.211,27.299
			c0.114,0.969-0.499,1.875-1.44,2.131l-10.463,2.838c-1.161,0.315-2.331-0.476-2.472-1.671l-3.211-27.299
			C1106.186,808.852,1106.799,807.946,1107.74,807.69z"/>
		<path style="fill:#BBDBF3;" d="M1222.833,788.99l-10.719,0.663c-1.128,0.07-1.967,1.073-1.834,2.196l3.215,27.336
			c0.122,1.038,1.034,1.8,2.078,1.736l10.719-0.663c1.128-0.07,1.967-1.073,1.835-2.196l-3.215-27.336
			C1224.788,789.687,1223.876,788.925,1222.833,788.99z"/>
		<path style="fill:#BBDBF3;" d="M1258.494,789.958l-10.836-0.333c-1.203-0.037-2.157,1.004-2.016,2.199l3.211,27.299
			c0.114,0.969,0.92,1.708,1.896,1.739l10.836,0.333c1.203,0.037,2.157-1.004,2.016-2.199l-3.211-27.299
			C1260.275,790.727,1259.469,789.988,1258.494,789.958z"/>
		<path style="fill:#BBDBF3;" d="M1177.049,793.128l10.649-1.253c1.08-0.127,2.059,0.646,2.186,1.726l3.216,27.342
			c0.127,1.08-0.646,2.059-1.726,2.186l-10.65,1.253c-1.08,0.127-2.059-0.646-2.186-1.726l-3.216-27.342
			C1175.196,794.234,1175.968,793.255,1177.049,793.128z"/>
	</g>
	<g>
		<path style="fill:#586773;" d="M1041.3,1964.075H377.986c-14.517,0-26.286-11.769-26.286-26.286v-455.29h715.885v455.29
			C1067.586,1952.307,1055.817,1964.075,1041.3,1964.075z"/>
		<polygon style="fill:#322A28;" points="351.701,1516.566 1067.586,1516.566 351.701,1587.796 		"/>
		<g>
			<rect x="344.358" y="1420.563" style="fill:#586773;" width="730.566" height="96.01"/>
			<polygon style="fill:#FFFFFF;" points="437.176,1420.563 384.833,1516.573 344.358,1516.573 344.358,1501.069 388.193,1420.563 
							"/>
			<polygon style="fill:#FFFFFF;" points="531.402,1420.563 479.06,1516.573 430.132,1516.573 482.473,1420.563 			"/>
			<polygon style="fill:#FFFFFF;" points="625.629,1420.563 573.34,1516.573 524.358,1516.573 576.7,1420.563 			"/>
			<polygon style="fill:#FFFFFF;" points="719.909,1420.563 667.567,1516.573 618.639,1516.573 670.926,1420.563 			"/>
			<polygon style="fill:#FFFFFF;" points="814.135,1420.563 761.793,1516.573 712.865,1516.573 765.207,1420.563 			"/>
			<polygon style="fill:#FFFFFF;" points="908.362,1420.563 856.074,1516.573 807.092,1516.573 859.433,1420.563 			"/>
			<polygon style="fill:#FFFFFF;" points="1002.642,1420.563 950.3,1516.573 901.372,1516.573 953.659,1420.563 			"/>
			<polygon style="fill:#FFFFFF;" points="1074.924,1420.563 1074.924,1460.816 1044.526,1516.573 995.599,1516.573 
				1047.94,1420.563 			"/>
		</g>
		<g>
			
				<rect x="293.252" y="1180.136" transform="matrix(0.9135 -0.4067 0.4067 0.9135 -442.5966 374.0286)" style="fill:#586773;" width="730.566" height="96.011"/>
			<polygon style="fill:#FFFFFF;" points="390.1,1295.108 381.334,1404.107 344.358,1420.57 338.052,1406.407 345.353,1315.031 			
				"/>
			<polygon style="fill:#FFFFFF;" points="476.18,1256.782 467.415,1365.782 422.716,1385.683 431.482,1276.683 			"/>
			<polygon style="fill:#FFFFFF;" points="562.261,1218.457 553.544,1327.434 508.796,1347.358 517.562,1238.358 			"/>
			<polygon style="fill:#FFFFFF;" points="648.39,1180.11 639.625,1289.109 594.926,1309.01 603.642,1200.033 			"/>
			<polygon style="fill:#FFFFFF;" points="734.469,1141.785 725.704,1250.784 681.006,1270.685 689.772,1161.685 			"/>
			<polygon style="fill:#FFFFFF;" points="820.55,1103.459 811.834,1212.436 767.086,1232.359 775.852,1123.36 			"/>
			<polygon style="fill:#FFFFFF;" points="906.679,1065.112 897.914,1174.111 853.215,1194.012 861.931,1085.035 			"/>
			<polygon style="fill:#FFFFFF;" points="972.712,1035.712 989.085,1072.485 983.993,1135.786 939.296,1155.687 948.061,1046.687 
							"/>
		</g>
		
			<line style="fill:none;stroke:#FFFFFF;stroke-width:5.6103;stroke-miterlimit:10;" x1="386.378" y1="1641.218" x2="1032.908" y2="1641.218"/>
		
			<line style="fill:none;stroke:#FFFFFF;stroke-width:5.6103;stroke-miterlimit:10;" x1="386.378" y1="1771.29" x2="1032.908" y2="1771.29"/>
		
			<line style="fill:none;stroke:#FFFFFF;stroke-width:5.6103;stroke-miterlimit:10;" x1="386.378" y1="1858.005" x2="1032.908" y2="1858.005"/>
		
			<line style="fill:none;stroke:#FFFFFF;stroke-width:5.6103;stroke-miterlimit:10;" x1="709.643" y1="1771.29" x2="709.643" y2="1937.751"/>
		
			<line style="fill:none;stroke:#FFFFFF;stroke-width:5.6103;stroke-miterlimit:10;" x1="387.059" y1="1814.647" x2="709.643" y2="1814.647"/>
		
			<line style="fill:none;stroke:#FFFFFF;stroke-width:5.6103;stroke-miterlimit:10;" x1="548.011" y1="1641.218" x2="548.011" y2="1771.29"/>
		
			<line style="fill:none;stroke:#FFFFFF;stroke-width:5.6103;stroke-miterlimit:10;" x1="709.643" y1="1641.218" x2="709.643" y2="1771.29"/>
		
			<line style="fill:none;stroke:#FFFFFF;stroke-width:5.6103;stroke-miterlimit:10;" x1="871.276" y1="1641.218" x2="871.276" y2="1771.29"/>
	</g>
	<g>
		<path style="fill:#FDAE97;" d="M860.462,856.305c0,0,10.009-7.752,8.876-11.195c-1.133-3.444-2.978-1.329-2.978-1.329
			s4.418-6.727,2.72-9.429c-1.699-2.701-5.365,0.727-5.365,0.727s1.045-5.071-2.099-6.644s-13.694,6.118-19.054,8.843
			c-5.36,2.725-18.358,8.083-20.218,7.136c-1.861-0.947,13.324-11.798,11.781-15.319c-1.543-3.522-25.915,7.374-34.298,12.374
			c-3.606,2.15-8.209,4.187-12.288,5.813l8.321,31.604c5.431-0.649,31.287-3.806,41.89-6.313
			c11.878-2.808,26.151-11.536,25.648-14.266C862.894,855.576,860.462,856.305,860.462,856.305z"/>
		<path style="fill:#F74242;" d="M676.816,921.963c-14.459,3.145-29.205-7.685-32.768-24.066
			c-3.563-16.381,5.352-32.357,19.812-35.502l126.374-22.225l10.53,41.541L676.816,921.963z"/>
		
			<rect x="514.502" y="1043.986" transform="matrix(-1 -1.224647e-16 1.224647e-16 -1 1141.0197 2253.6135)" style="fill:#E5F0F8;" width="112.016" height="165.641"/>
		<path style="fill:#F74242;" d="M688.651,918.208L688.651,918.208c-15.139,8.588-34.551,3.228-43.139-11.911l-57.091-100.641
			c-8.588-15.139-3.228-34.551,11.911-43.139l0,0c15.139-8.588,34.551-3.228,43.139,11.911l57.091,100.641
			C709.149,890.208,703.789,909.62,688.651,918.208z"/>
		<path style="fill:#0775EF;" d="M626.518,953.611l33.289,190.486c1.699,4.787,2.671,9.917,2.671,15.287
			c0,25.277-20.491,45.768-45.768,45.768c-25.277,0-45.768-20.491-45.768-45.768l-53.577-205.773H626.518z"/>
		<polygon style="fill:#088CFF;" points="475.353,951.845 581.058,935.103 572.682,1087.115 559.759,1118.487 554.526,1163.544 
			463.133,1161.353 		"/>
		<path style="fill:#0775EF;" d="M661.973,1165.827c0.298-2.11,0.505-4.25,0.505-6.442c0-25.277-20.491-45.768-45.768-45.768
			c-25.277,0-45.768,20.491-45.768,45.768l2.707,216.24l77.161-0.045L661.973,1165.827z"/>
		<path style="fill:#088CFF;" d="M554.017,1157.102c-3.954-24.966-27.399-41.999-52.364-38.045
			c-24.966,3.954-37.018,16.535-38.521,42.296c-3.488,59.805-8.466,213.322-8.466,213.322l80.061-0.206l19.799-210.924
			C554.49,1161.413,554.36,1159.268,554.017,1157.102z"/>
		<polygon style="fill:#FFFFFF;" points="578.117,738.03 626.518,759.824 626.518,956.335 475.091,956.335 463.062,761.641 
			528.607,734.436 		"/>
		<path style="fill:#FDAE97;" d="M578.104,707.325v30.705c0,0-1.835,6.63-17.444,6.694c-15.578,0.032-32.056-10.299-32.056-10.299
			l4.828-67.138L578.104,707.325z"/>
		<polygon style="fill:#E89780;" points="578.117,733.818 546.228,700.714 578.117,700.295 		"/>
		<path style="fill:#FDAE97;" d="M588.79,645.556c0,0,1.487,18.77,2.542,32.085l0.872,11.005
			c0.689,8.695-0.728,21.786-10.278,25.545c-9.517,3.756-23.283,0.747-33.458-8.682c-10.177-9.461-34.607-53.759-7.044-73.021
			C569.02,613.222,587.761,641.118,588.79,645.556z"/>
		<path style="fill:#322A28;" d="M544.299,630.658c0,0,33.702-18.908,42.608-8.948c8.906,9.96-4.24,14.724-4.24,14.724
			s16.527-3.291,16.77,8.008c0.242,11.299-42.72-0.752-42.72-0.752s14.34,5.176,6.731,10.785
			c-7.609,5.609-17.275-0.155-17.275-0.155s-7.578,5.167-4.628,25.909c2.95,20.741-11.025,24.984-11.025,24.984
			s0.886-30.352-5.879-38.305C517.877,658.955,524.347,626.929,544.299,630.658z"/>
		<g>
			<path style="fill:#FDAE97;" d="M543.889,684.906c3.816,5.047,5.019,8.717,1.056,11.712c-3.962,2.996-10.969,2.704-14.784-2.343
				s-3.696-11.567,0.266-14.563C534.389,676.716,540.074,679.859,543.889,684.906z"/>
			<path style="fill:none;stroke:#E89780;stroke-width:0.7712;stroke-miterlimit:10;" d="M532.962,685.361
				c0,0,4.237-0.979,7.608,4.282c0,0-2.758-0.407-6.002,0.476"/>
		</g>
		<path style="fill:#322A28;" d="M565.882,672.102c0.16,2.017,1.347,3.568,2.652,3.465c1.305-0.103,2.233-1.822,2.073-3.839
			c-0.16-2.017-1.347-3.568-2.652-3.465C566.65,668.366,565.722,670.085,565.882,672.102z"/>
		<path style="fill:none;stroke:#332B27;stroke-width:0.9656;stroke-miterlimit:10;" d="M568.062,694.818
			c0,0,4.05,6.555,12.799,4.249"/>
		<path style="fill:none;stroke:#332B27;stroke-width:0.9656;stroke-miterlimit:10;" d="M574.875,672.633l5.471,12.526
			c0.554,1.269,0.173,2.753-0.925,3.597l-3.441,2.648"/>
		<path style="fill:none;stroke:#332B27;stroke-width:0.9656;stroke-miterlimit:10;" d="M560.531,666.265c0,0,4.7-3.874,9.617-2.043
			"/>
		<path style="fill:#322A28;" d="M590.277,670.169c0.16,2.017-0.768,3.736-2.073,3.839c-1.305,0.103-2.492-1.448-2.652-3.465
			c-0.16-2.017,0.768-3.736,2.073-3.839C588.93,666.601,590.118,668.152,590.277,670.169z"/>
		<path style="fill:none;stroke:#332B27;stroke-width:0.9656;stroke-miterlimit:10;" d="M590.823,663.664
			c0,0-3.707-3.007-8.274-0.425"/>
		<path style="fill:#F74242;" d="M438.089,933.391L438.089,933.391c-16.852-4.352-27.079-21.701-22.727-38.552l28.931-112.031
			c4.352-16.852,21.701-27.079,38.552-22.727h0c16.852,4.352,27.079,21.701,22.727,38.552l-28.931,112.031
			C472.289,927.516,454.94,937.743,438.089,933.391z"/>
		<path style="fill:#F74242;" d="M522.095,737.138c0,0,29.015,63.387,31.258,123.163c2.243,59.776,0,168.334,0,168.334h-90.292
			V761.641L522.095,737.138z"/>
		<path style="fill:#E89780;" d="M569.541,685.052c-0.474,1.902-3.924,2.68-7.706,1.738c-3.782-0.942-6.464-3.248-5.99-5.15
			c0.474-1.902,3.924-2.681,7.706-1.738C567.333,680.845,570.015,683.15,569.541,685.052z"/>
		<path style="fill:#F74242;" d="M581.847,739.71c0,0,13.143,115.985,12.581,151.553c-0.563,35.568,2.814,128.426,2.814,128.426
			h43.693c0,0,1.644-55.191,0-89.775c-1.644-34.584-14.416-170.09-14.416-170.09L581.847,739.71z"/>
		<path style="fill:#E89780;" d="M591.332,677.641l0.567,7.155c-2.988,0.592-5.525-0.047-6.067-1.586
			C585.236,681.385,587.686,678.898,591.332,677.641z"/>
		<polygon style="fill:#FDAE97;" points="579.691,1394.399 580.437,1375.621 643.064,1375.584 642.546,1394.399 		"/>
		<polygon style="fill:#E89780;" points="642.622,1388.737 580.437,1375.621 643.064,1375.584 		"/>
		<polygon style="fill:#FDAE97;" points="460.71,1394.399 460.71,1374.675 520.467,1374.675 518.455,1394.399 		"/>
		<polygon style="fill:#E89780;" points="519.229,1386.809 460.71,1374.675 520.467,1374.675 		"/>
		
			<line style="fill:none;stroke:#332B27;stroke-width:1.3238;stroke-miterlimit:10;" x1="632.896" y1="821.458" x2="640.935" y2="899.145"/>
		<g>
			<path style="fill:#F9E181;" d="M957.181,860.608c-39.016,52.794-99.412,80.388-160.376,79.757
				c-36.053-0.348-69.935,17.412-91.381,46.432l-19.201,25.981L574.81,930.439l19.201-25.981
				c21.447-29.02,28.516-66.596,17.538-100.949c-4.004-12.526-6.713-25.438-8.191-38.503l0.027-0.036
				c-1.818-16.617-1.514-33.456,0.933-50.167c5.118-34.71,19.646-68.676,44.178-97.933c62.701-74.621,172.493-91.838,254.958-39.901
				c1.817,1.175,3.67,2.377,5.461,3.588c59.109,39.935,89.269,105.64,86.601,171.253
				C994.01,789.805,981.463,827.752,957.181,860.608z"/>
			<path style="fill:#BBDBF3;" d="M669.475,1036.878c-1.925,2.605-4.005,5.041-6.238,7.307
				c-9.991,9.961-22.646,16.106-35.959,18.072c-16.262,2.472-33.494-1.311-47.788-11.875l-8.648-6.391
				c-25.945-19.174-33.319-54.164-18.62-81.849c1.51-2.801,3.227-5.503,5.153-8.109c1.925-2.605,4.005-5.041,6.213-7.27
				c9.99-9.961,22.645-16.106,35.985-18.109c16.262-2.472,33.495,1.312,47.752,11.848l8.648,6.391
				c25.981,19.201,33.329,54.227,18.631,81.913C673.118,1031.569,671.401,1034.272,669.475,1036.878z"/>
			<path style="fill:#A7ADC7;" d="M704.895,1015.219c-2.418,0.395-5.013-0.18-7.112-1.732c2.461,1.819,3.785,4.644,3.86,7.497
				c0.05,2.051-0.565,4.17-1.848,5.907c-1.551,2.099-3.837,3.375-6.291,3.743c-2.391,0.359-4.987-0.217-7.086-1.768
				c2.244,1.658,3.584,4.159,3.783,6.768c0.276,2.274-0.3,4.646-1.771,6.636c-1.578,2.135-3.837,3.375-6.291,3.743
				c-2.391,0.359-4.987-0.217-7.086-1.768l-7.201-5.322c-1.463,1.828-2.998,3.603-4.615,5.261
				c-9.991,9.961-22.646,16.106-35.959,18.072c-16.262,2.472-33.494-1.311-47.788-11.875l-8.648-6.391
				c-19.287-14.254-28.304-37.254-25.616-59.438c11.798,11.516,30.087,23.41,55.166,23.314c35.276-0.114,59.75-40.045,70.512-61.799
				l49.609,36.663c2.497,1.845,3.858,4.697,3.879,7.622c0.04,1.988-0.557,4.008-1.841,5.745c-1.578,2.135-3.863,3.411-6.291,3.743
				c-2.418,0.395-5.013-0.18-7.112-1.732c2.316,1.712,3.639,4.312,3.847,6.983c0.177,2.257-0.418,4.503-1.809,6.384
				C709.636,1013.575,707.323,1014.887,704.895,1015.219z"/>
			<path style="fill:none;stroke:#FFFFFF;stroke-width:5.0104;stroke-miterlimit:10;" d="M633.932,936.978
				c0,0,158.911-202.011,92.25-224.608s63.624,169.874,130.125,117.49c66.501-52.384-64.487-55.377-102.983-3.552
				c-38.496,51.824-97.721,132.229-97.721,132.229"/>
			<path style="fill:#93ACBF;" d="M704.895,1015.219c-2.418,0.395-5.013-0.18-7.112-1.732c2.461,1.819,3.785,4.644,3.86,7.497
				c0.05,2.051-0.565,4.17-1.848,5.907c-1.551,2.099-3.837,3.375-6.291,3.743c-2.391,0.359-4.987-0.217-7.086-1.768
				c2.244,1.658,3.584,4.159,3.783,6.768c0.276,2.274-0.3,4.646-1.771,6.636c-1.578,2.135-3.837,3.375-6.291,3.743
				c-2.391,0.359-4.987-0.217-7.086-1.768l-7.201-5.322c-1.463,1.828-2.998,3.603-4.615,5.261
				c-9.991,9.961-22.646,16.106-35.959,18.072c-16.262,2.472-33.494-1.311-47.788-11.875l-8.648-6.391
				c-19.287-14.254-28.304-37.254-25.616-59.438c11.798,11.516,30.087,23.41,55.166,23.314c35.276-0.114,59.75-40.045,70.512-61.799
				l49.609,36.663c2.497,1.845,3.858,4.697,3.879,7.622c0.04,1.988-0.557,4.008-1.841,5.745c-1.578,2.135-3.863,3.411-6.291,3.743
				c-2.418,0.395-5.013-0.18-7.112-1.732c2.316,1.712,3.639,4.312,3.847,6.983c0.177,2.257-0.418,4.503-1.809,6.384
				C709.636,1013.575,707.323,1014.887,704.895,1015.219z"/>
			<path style="fill:#93ACBF;" d="M669.475,1036.878c-1.925,2.605-4.005,5.041-6.238,7.307l-111.015-82.044
				c1.51-2.801,3.227-5.503,5.153-8.109c1.925-2.605,4.005-5.041,6.213-7.27l111.015,82.044
				C673.118,1031.569,671.401,1034.272,669.475,1036.878z"/>
			<path style="fill:#BBDBF3;" d="M688.43,1042.27c-1.578,2.135-3.837,3.375-6.291,3.743c-2.391,0.359-4.987-0.217-7.086-1.768
				l-127.081-93.917c-4.234-3.129-5.131-9.107-2.002-13.341c1.471-1.99,3.568-3.238,5.788-3.667
				c0.153-0.055,0.279-0.074,0.467-0.102c2.418-0.395,5.013,0.18,7.112,1.732l127.081,93.917c2.244,1.658,3.584,4.159,3.783,6.768
				C690.477,1037.908,689.9,1040.28,688.43,1042.27z"/>
			<path style="fill:#BBDBF3;" d="M722.552,996.098c-1.578,2.135-3.863,3.411-6.291,3.743c-2.418,0.395-5.013-0.18-7.112-1.732
				l-127.081-93.917c-4.234-3.129-5.104-9.143-1.976-13.377c1.283-1.737,3.039-2.901,4.917-3.472
				c0.466-0.103,0.898-0.232,1.339-0.297c2.391-0.359,4.987,0.216,7.086,1.768l127.081,93.917c2.497,1.845,3.858,4.697,3.879,7.622
				C724.433,992.341,723.836,994.361,722.552,996.098z"/>
			<path style="fill:#BBDBF3;" d="M711.187,1011.476c-1.551,2.099-3.864,3.411-6.291,3.743c-2.418,0.395-5.013-0.18-7.112-1.732
				L570.702,919.57c-4.234-3.129-5.104-9.143-1.976-13.377c1.391-1.882,3.362-3.11,5.536-3.63c0.252-0.038,0.467-0.102,0.719-0.14
				c2.391-0.359,4.987,0.217,7.086,1.768l127.081,93.917c2.316,1.712,3.639,4.312,3.847,6.983
				C713.173,1007.349,712.577,1009.595,711.187,1011.476z"/>
			<path style="fill:#93ACBF;" d="M724.393,990.352c-0.431,0.129-0.899,0.231-1.34,0.297c-2.417,0.395-5.013-0.18-7.112-1.732
				L588.86,895.001c-2.497-1.846-3.831-4.734-3.851-7.658c0.466-0.103,0.898-0.232,1.339-0.297c2.391-0.359,4.987,0.216,7.086,1.768
				l127.081,93.917C723.01,984.575,724.371,987.428,724.393,990.352z"/>
			<path style="fill:#93ACBF;" d="M712.995,1005.092c-0.216,0.064-0.467,0.102-0.719,0.14c-2.418,0.395-5.013-0.18-7.112-1.732
				l-127.081-93.917c-2.316-1.712-3.639-4.312-3.82-7.019c0.252-0.038,0.467-0.102,0.719-0.14c2.391-0.359,4.987,0.217,7.086,1.768
				l127.081,93.917C711.464,999.821,712.787,1002.42,712.995,1005.092z"/>
			<path style="fill:#BBDBF3;" d="M699.795,1026.891c-1.551,2.099-3.837,3.375-6.291,3.743c-2.391,0.359-4.987-0.217-7.086-1.768
				l-127.081-93.917c-4.234-3.129-5.104-9.143-2.002-13.341c1.284-1.737,3.13-2.946,5.069-3.527
				c0.404-0.093,0.808-0.186,1.186-0.243c2.418-0.395,5.014,0.18,7.113,1.732l127.081,93.917c2.461,1.819,3.785,4.644,3.86,7.497
				C701.693,1023.035,701.078,1025.154,699.795,1026.891z"/>
			<path style="fill:#93ACBF;" d="M701.643,1020.984c-0.368,0.119-0.773,0.212-1.213,0.278c-2.391,0.359-4.987-0.217-7.086-1.768
				l-127.081-93.917c-2.46-1.818-3.812-4.608-3.859-7.496c0.404-0.093,0.808-0.186,1.186-0.243c2.418-0.395,5.014,0.18,7.113,1.732
				l127.081,93.917C700.244,1015.306,701.568,1018.131,701.643,1020.984z"/>
			<path style="fill:#93ACBF;" d="M690.2,1035.634c-0.189,0.028-0.315,0.047-0.441,0.066c-2.417,0.396-5.013-0.18-7.112-1.732
				l-127.081-93.917c-2.244-1.658-3.548-4.132-3.809-6.731c0.153-0.055,0.279-0.074,0.467-0.102c2.418-0.395,5.013,0.18,7.112,1.732
				l127.081,93.917C688.662,1030.524,690.001,1033.025,690.2,1035.634z"/>
			<path style="fill:#F9ECB8;" d="M903.454,576.969c1.817,1.175,3.67,2.377,5.461,3.588c-26.399-3.341-57.942-4.721-95.29-2.558
				c-115.77,6.756-182.579,93.447-209.307,136.804c5.118-34.71,19.646-68.676,44.178-97.933
				C711.196,542.248,820.989,525.032,903.454,576.969z"/>
		</g>
		<path style="fill:#FDAE97;" d="M649.486,926.412l-10.013,7.129c-1.427,1.016-3.377,0.865-4.63-0.36l-11.074-10.817l21.876,4.058
			c1.265,0.235,2.5-0.531,2.852-1.768l0.509-1.79c0.362-1.273-0.333-2.606-1.584-3.038l-36.901-12.738l-22.748,2.643l-8.805,42.821
			c11.346,1.553,38.26,13.397,48.026,17.818c2.189,0.991,4.76,0.518,6.459-1.181l16.242-16.224c2.538-2.536,3.882-6.028,3.7-9.61
			l-0.785-15.431C652.531,926.363,650.759,925.505,649.486,926.412z"/>
		<path style="fill:#F74242;" d="M452.016,873.525c-14.491-3.459-29.553,7.142-33.473,23.559
			c-3.919,16.417,4.731,32.68,19.222,36.139l142.373,24.182l10.99-52.833C591.149,904.485,452.016,873.525,452.016,873.525z"/>
		<path style="fill:none;stroke:#F7E7DC;stroke-width:1.0903;stroke-miterlimit:10;" d="M573.674,671.962
			c0.734,3.914-1.224,7.566-4.374,8.157c-3.15,0.591-6.3-2.102-7.034-6.016c-0.734-3.914,1.224-7.566,4.374-8.157
			C569.79,665.355,572.94,668.049,573.674,671.962z"/>
		<path style="fill:none;stroke:#F7E7DC;stroke-width:1.0903;stroke-miterlimit:10;" d="M591.868,670.576
			c0.693,3.693-1.004,7.111-3.792,7.635c-2.787,0.523-5.609-2.047-6.302-5.74c-0.693-3.693,1.004-7.112,3.792-7.635
			C588.353,664.312,591.175,666.882,591.868,670.576z"/>
		
			<line style="fill:none;stroke:#F7E7DC;stroke-width:1.0903;stroke-miterlimit:10;" x1="573.506" y1="671.247" x2="581.641" y2="670.252"/>
		<path style="fill:#332B27;" d="M577.715,1420.563h87.715l-0.103-3.912c0-0.566-0.052-1.132-0.103-1.699
			c-1.132-11.582-10.861-20.539-22.7-20.539h-62.852l-1.544,20.539L577.715,1420.563z"/>
		<path style="fill:#FFFFFF;" d="M577.715,1420.563h87.715l-0.103-3.912c0-0.566-0.052-1.132-0.103-1.699h-87.096L577.715,1420.563z
			"/>
		
			<path style="fill:none;stroke:#FFFFFF;stroke-width:0.5315;stroke-linecap:round;stroke-linejoin:round;stroke-miterlimit:10;" d="
			M640.274,1400.894c0,0,1.911-8.36,6.628-6.091c4.718,2.269-6.33,6.389-6.33,6.389l6.569,4.538"/>
		
			<path style="fill:none;stroke:#FFFFFF;stroke-width:0.5315;stroke-linecap:round;stroke-linejoin:round;stroke-miterlimit:10;" d="
			M640.274,1400.894c0,0-1.911-8.36-6.628-6.091c-4.717,2.269,6.33,6.389,6.33,6.389l-6.569,4.538"/>
		<path style="fill:#332B27;" d="M435.798,1420.563h80.868l0.412-5.611l1.39-20.539h-57.757c-12.148,0-22.391,8.802-24.348,20.539
			c-0.206,0.824-0.309,1.699-0.359,2.574L435.798,1420.563z"/>
		<path style="fill:#FFFFFF;" d="M435.798,1420.563h80.868l0.412-5.611h-80.715c-0.206,0.824-0.309,1.699-0.359,2.574
			L435.798,1420.563z"/>
		
			<path style="fill:none;stroke:#FFFFFF;stroke-width:0.5315;stroke-linecap:round;stroke-linejoin:round;stroke-miterlimit:10;" d="
			M456.09,1400.894c0,0,1.911-8.36,6.628-6.091c4.717,2.269-6.33,6.389-6.33,6.389l6.569,4.538"/>
		
			<path style="fill:none;stroke:#FFFFFF;stroke-width:0.5315;stroke-linecap:round;stroke-linejoin:round;stroke-miterlimit:10;" d="
			M456.09,1400.894c0,0-1.911-8.36-6.628-6.091c-4.717,2.269,6.33,6.389,6.33,6.389l-6.569,4.538"/>
	</g>
	<path style="fill:#E5F0F8;" d="M367.368,1011.896c-10.191-14.559-27.463-23.752-46.737-22.649c-0.584,0.033-1.18,0.078-1.764,0.124
		c-26.27,2.352-47.075,24.072-48.326,50.42c-0.479,10.322,1.967,20.016,6.56,28.326c2.215,3.998,4.912,7.672,8.03,10.95l0,0.012
		c2.462,2.569,5.164,4.904,8.08,6.943c7.089,4.955,11.535,12.782,12.558,21.295l-2.461,0.037c-0.706,0.01-1.359,0.313-1.815,0.782
		c-0.084,0.087-0.156,0.185-0.239,0.284c-0.311,0.431-0.497,0.97-0.488,1.554c0.021,1.424,1.195,2.576,2.62,2.555
		c-0.706,0.011-1.359,0.313-1.815,0.782c-0.048,0.049-0.084,0.099-0.132,0.148c-0.383,0.469-0.605,1.056-0.596,1.689
		c0.021,1.425,1.195,2.576,2.62,2.555c-0.706,0.011-1.359,0.313-1.815,0.794c-0.072,0.074-0.144,0.161-0.215,0.247
		c-0.322,0.443-0.521,1.006-0.512,1.591c0.021,1.412,1.195,2.564,2.62,2.543c-0.706,0.01-1.359,0.313-1.815,0.794
		c-0.036,0.037-0.06,0.062-0.084,0.099c-0.407,0.457-0.654,1.069-0.644,1.739c0.021,1.425,1.195,2.564,2.62,2.543l2.667-0.04
		c0.034,0.635,0.088,1.264,0.186,1.885c0.354,2.152,1.108,4.165,2.172,5.971c0,0,0,0,0,0c0.2,0.341,0.413,0.674,0.636,1
		c0.111,0.162,0.23,0.318,0.347,0.477c0.155,0.212,0.314,0.421,0.479,0.625c0.121,0.149,0.242,0.297,0.368,0.443
		c0.199,0.231,0.406,0.455,0.617,0.675c0.098,0.103,0.192,0.209,0.292,0.309c0.305,0.304,0.624,0.594,0.951,0.875
		c0.114,0.098,0.232,0.189,0.348,0.284c0.243,0.197,0.49,0.389,0.743,0.573c0.129,0.094,0.257,0.187,0.389,0.277
		c0.3,0.206,0.607,0.402,0.92,0.589c0.078,0.046,0.152,0.097,0.23,0.142c0.386,0.223,0.784,0.429,1.188,0.622
		c0.125,0.06,0.253,0.114,0.38,0.171c0.303,0.136,0.611,0.264,0.923,0.384c0.138,0.052,0.275,0.105,0.414,0.155
		c0.391,0.138,0.788,0.264,1.192,0.374c0.046,0.013,0.091,0.029,0.138,0.041c0.448,0.118,0.905,0.214,1.366,0.297
		c0.135,0.024,0.272,0.043,0.408,0.064c0.349,0.054,0.701,0.097,1.057,0.13c0.141,0.013,0.282,0.028,0.424,0.037
		c0.481,0.033,0.965,0.052,1.456,0.045l2.91-0.043c4.81-0.072,9.139-2.085,12.234-5.285c2.543-2.608,4.258-6.006,4.774-9.789
		c0.04-0.326,0.069-0.655,0.09-0.986c0.021-0.295,0.033-0.593,0.039-0.891c0-0.004,0.001-0.009,0.001-0.013l2.423-0.036
		c0.706-0.011,1.359-0.313,1.815-0.782c0.468-0.482,0.751-1.12,0.74-1.838c-0.01-0.67-0.275-1.275-0.708-1.719
		c-0.471-0.529-1.169-0.847-1.925-0.836c0.706-0.011,1.359-0.313,1.815-0.782c0.468-0.482,0.75-1.132,0.74-1.838
		c-0.009-0.584-0.224-1.141-0.571-1.575c-0.484-0.602-1.233-0.992-2.061-0.98c0.706-0.01,1.359-0.313,1.815-0.794
		c0.468-0.47,0.75-1.131,0.74-1.838c-0.009-0.633-0.25-1.214-0.658-1.671c-0.483-0.541-1.194-0.883-1.974-0.872
		c0.706-0.01,1.359-0.313,1.815-0.794c0.468-0.47,0.751-1.119,0.74-1.838c-0.009-0.584-0.212-1.117-0.547-1.538
		c-0.484-0.626-1.246-1.017-2.086-1.004l-2.448,0.036c0.771-8.539,4.99-16.497,11.917-21.672
		c13.225-9.867,21.695-25.715,21.431-43.479C376.804,1030.546,373.278,1020.32,367.368,1011.896z"/>
	<g>
		<path style="fill:#E5F0F8;" d="M445.356,578.895c-4.714-3.303-9.892-5.72-15.289-7.252c-0.961,5.816-6.164,10.101-12.187,9.794
			c-6.023-0.307-10.748-5.085-11.112-10.968c-5.51,0.961-10.907,2.838-15.933,5.644c3.424,4.797,2.794,11.497-1.689,15.544
			c-4.483,4.047-11.212,3.992-15.636,0.098c-3.303,4.714-5.72,9.892-7.237,15.275c5.816,0.961,10.087,6.149,9.78,12.172
			c-0.307,6.023-5.1,10.762-10.983,11.126c0.975,5.525,2.852,10.922,5.658,15.948c4.784-3.44,11.499-2.822,15.559,1.675
			c4.047,4.483,3.991,11.24,0.082,15.649c4.714,3.303,9.892,5.72,15.275,7.237c0.961-5.816,6.164-10.101,12.187-9.794
			c6.023,0.308,10.748,5.085,11.112,10.968c5.51-0.961,10.907-2.838,15.933-5.644c-3.424-4.797-2.793-11.497,1.689-15.544
			c4.483-4.047,11.212-3.993,15.635-0.097c3.303-4.714,5.72-9.892,7.237-15.276c-5.816-0.961-10.087-6.149-9.78-12.172
			c0.307-6.023,5.1-10.762,10.983-11.126c-0.961-5.51-2.838-10.907-5.644-15.933c-4.813,3.438-11.512,2.807-15.56-1.676
			C441.377,590.047,441.432,583.317,445.356,578.895z M434.383,604.525c9.229,10.222,8.438,26-1.799,35.243
			c-10.237,9.243-26.014,8.423-35.243-1.799c-9.243-10.237-8.452-26.015,1.785-35.258
			C409.363,593.468,425.14,594.288,434.383,604.525z"/>
		<path style="fill:#E5F0F8;" d="M393.665,734.904c-6.762,13.651-23.314,19.254-36.985,12.482
			c-13.671-6.772-19.244-23.334-12.482-36.985c6.772-13.671,23.324-19.275,36.995-12.503S400.436,721.233,393.665,734.904z
			 M424.492,735.768c1.481-6.193,1.861-12.503,1.242-18.677c-6.374,1.376-12.897-2.233-15.031-8.553
			c-2.133-6.32,0.859-13.124,6.763-15.892c-3.229-5.277-7.355-10.066-12.286-14.095c-3.542,5.474-10.691,7.549-16.677,4.584
			s-8.667-9.909-6.459-16.044c-6.193-1.481-12.502-1.861-18.657-1.232c1.376,6.374-2.223,12.877-8.543,15.01
			c-6.321,2.133-13.145-0.869-15.912-6.774c-5.287,3.25-10.076,7.375-14.105,12.306c5.484,3.522,7.58,10.68,4.604,16.687
			c-2.965,5.986-9.94,8.677-16.065,6.449c-1.481,6.193-1.861,12.502-1.232,18.657c6.374-1.376,12.897,2.233,15.031,8.553
			c2.133,6.32-0.859,13.124-6.763,15.892c3.229,5.277,7.355,10.066,12.286,14.095c3.543-5.474,10.691-7.549,16.677-4.584
			c5.986,2.965,8.667,9.909,6.459,16.044c6.193,1.481,12.502,1.861,18.657,1.232c-1.376-6.374,2.223-12.877,8.543-15.01
			c6.32-2.133,13.145,0.869,15.912,6.774c5.277-3.229,10.066-7.355,14.095-12.286c-5.494-3.552-7.57-10.701-4.604-16.687
			C411.403,736.211,418.348,733.53,424.492,735.768z"/>
	</g>
	<path style="fill:#FFFFFF;" d="M2163.382,1200.219c8.1,19.101,28.799,28.858,48.332,24.082l30.069,70.906l12.287-5.211
		l-30.065-70.896c17.057-10.696,24.396-32.36,16.282-51.494c-9-21.222-33.51-31.211-54.731-22.212
		S2154.382,1178.997,2163.382,1200.219z M2231.93,1171.149c7.009,16.527-0.779,35.784-17.306,42.792
		c-16.621,7.048-35.783-0.78-42.792-17.306c-7.048-16.62,0.685-35.743,17.306-42.791
		C2205.666,1146.835,2224.882,1154.529,2231.93,1171.149z"/>
	<g>
		<path style="fill:#F74242;" d="M1482.838,1132.521L1482.838,1132.521c13.482,7.256,30.449,2.162,37.704-11.319l54.54-101.337
			c7.256-13.482,2.162-30.448-11.319-37.704l0,0c-13.481-7.256-30.448-2.162-37.704,11.32l-54.54,101.337
			C1464.262,1108.298,1469.356,1125.265,1482.838,1132.521z"/>
		<path style="fill:#FDAE97;" d="M1508.709,1136.252c13.856-6.683,20.366-22.159,14.467-34.39l-64.902-98.632
			c-1.441-3.764-2.931-8.136-3.723-11.906c-1.843-8.766-9.655-31.986-12.99-30.836c-3.336,1.15-1.209,18.144-3.005,17.478
			c-1.796-0.665-6.268-12.767-7.764-18.078c-1.497-5.311-2.871-17.213-5.888-18.356c-3.017-1.143-5.788,2.717-5.788,2.717
			s0.032-4.606-2.847-4.071c-2.879,0.535-4.669,7.701-4.669,7.701s0.279-2.561-2.749-1.182c-3.028,1.378-2.03,12.953-2.03,12.953
			s-1.022-2.095-3.176-0.736c-2.155,1.359,0.837,16.418,6.332,26.178c4.905,8.712,18.86,28.119,21.801,32.187l41.013,108.889
			C1478.689,1138.397,1494.853,1142.936,1508.709,1136.252z"/>
		<path style="fill:#322A28;" d="M1621.514,902.058c0,0,14.468,10.551,11.327,32.334c-3.141,21.783-4.9,33.572,8.871,34.697
			s41.356-7.086,43.589,11.342c2.233,18.427-10.763,30.705,8.637,34.102s22.051,28.377,22.051,28.377s-69.279,43.625-135.141,3.565
			c-65.862-40.06,4.328-67.69,4.328-67.69L1621.514,902.058z"/>
		<g>
			<rect x="1437.766" y="1507.202" style="fill:#322A28;" width="225.814" height="11.97"/>
			<rect x="1460.398" y="1664.286" style="fill:#322A28;" width="225.814" height="11.97"/>
			<rect x="1484.712" y="1821.37" style="fill:#322A28;" width="218.909" height="11.97"/>
			<polygon style="fill:#322A28;" points="1508.337,1975.643 1495.571,1975.643 1420.969,1397.11 1433.736,1397.11 			"/>
			<polygon style="fill:#322A28;" points="1726.35,1975.643 1713.584,1975.643 1638.982,1397.11 1651.749,1397.11 			"/>
			<polygon style="fill:#322A28;" points="1564.316,1975.643 1577.083,1975.643 1651.684,1397.11 1638.918,1397.11 			"/>
			<polygon style="fill:#322A28;" points="1346.303,1975.643 1359.07,1975.643 1433.671,1397.11 1420.905,1397.11 			"/>
			<rect x="1423.877" y="1397.11" style="fill:#322A28;" width="225.814" height="11.97"/>
		</g>
		<path style="fill:#0775EF;" d="M1620.245,1236.721c-21.464,20.997-69.729,33.842-124.041,28.802
			c-54.313-5.039-89.564-4.666-89.564-4.666c-24.855,0-45.004-20.149-45.004-45.004c0-24.855,20.149-45.004,45.004-45.004
			l204.724-6.468L1620.245,1236.721z"/>
		<path style="fill:#F74242;" d="M1610.812,970.614l48.715,22.063c0,0-10.831,125.407-11.951,139.125
			c-1.12,13.718,3.079,34.435,3.079,34.435h-116.743c0,0,1.4-67.19-6.439-85.948c-5.31-12.707-8.959-20.437-5.879-34.995
			c3.08-14.558,25.613-40.294,21.973-65.49l25.414-8.139L1610.812,970.614z"/>
		<path style="fill:#F74242;" d="M1672.257,1157.617L1672.257,1157.617c15.052-2.8,25.076-17.406,22.276-32.458l-21.046-113.141
			c-2.8-15.052-17.406-25.076-32.458-22.276l0,0c-15.052,2.8-25.076,17.406-22.276,32.458l21.046,113.14
			C1642.599,1150.392,1657.205,1160.417,1672.257,1157.617z"/>
		<path style="fill:#322A28;" d="M1560.303,903.34c0,0-7.498-15.926,8.144-21.716L1560.303,903.34z"/>
		<path style="fill:#FDAE97;" d="M1611.018,970.607l-0.033,0.033c-0.523,0.916-9.36,15.807-26.083,14.563
			c-14.793-1.113-15.905-13.549-15.905-13.549v-56.65h36L1611.018,970.607z"/>
		<polygon style="fill:#E89780;" points="1568.996,965.202 1594.113,937.89 1568.98,947.331 		"/>
		<path style="fill:#FDAE97;" d="M1593.543,947.61c-11.351,7.547-25.184,8.285-33.831,3.123c-8.653-5.129-7.976-18.063-5.93-26.361
			c0.007-0.032,0.007-0.032,0.013-0.064c0.428-1.716,1.035-4.13,1.71-6.864c2.62-10.719,6.491-26.593,6.491-26.593
			c1.617-8.365,24.255-28.211,47.946-5.207C1633.627,908.68,1604.894,940.063,1593.543,947.61z"/>
		<path style="fill:#322A28;" d="M1562.565,887.473c0,0,0.841,9.874,15.054,15.734s27.91,15.255,27.042,29.952
			c-0.868,14.697,4.585,22.667,4.585,22.667s1.079-18.315,9.427-34.227c3.238-6.172,5.677-18.956-0.825-29.512
			C1607.587,875.43,1582.789,863.694,1562.565,887.473z"/>
		<path style="fill:#FDAE97;" d="M1602.121,930.149c-2.742,4.565-3.42,7.743,0.163,9.896c3.584,2.153,9.421,1.282,12.163-3.283
			c2.742-4.565,2.059-10.01-1.525-12.163C1609.338,922.446,1604.862,925.584,1602.121,930.149z"/>
		
			<path style="fill:none;stroke:#E89780;stroke-width:0.6613;stroke-linecap:round;stroke-linejoin:round;stroke-miterlimit:10;" d="
			M1610.098,933.011c-2.978-1.256-5.437,0.149-5.437,0.149c1.733-5.132,7.875-3.427,7.875-3.427"/>
		<path style="fill:#322A28;" d="M1580.787,917.814c-0.443,2.009-1.856,3.405-3.155,3.119c-1.3-0.287-1.994-2.148-1.551-4.156
			c0.443-2.009,1.856-3.405,3.155-3.119S1581.23,915.805,1580.787,917.814z"/>
		<path style="fill:#322A28;" d="M1563.967,912.469c-0.443,2.009-1.856,3.405-3.155,3.118c-1.3-0.287-1.994-2.147-1.551-4.156
			c0.443-2.009,1.856-3.405,3.155-3.119C1563.716,908.599,1564.41,910.46,1563.967,912.469z"/>
		<path style="fill:none;stroke:#2C3447;stroke-width:0.9818;stroke-miterlimit:10;" d="M1586.254,914.787
			c0,0-2.929-5.896-8.029-5.122"/>
		<path style="fill:none;stroke:#FFFFFF;stroke-width:1.3226;stroke-miterlimit:10;" d="M1528.915,1084.644
			c0,0-8.56-18.735-8.293-32.822c0.267-14.087,9.901-26.367,9.901-26.367"/>
		<path style="fill:#0775EF;" d="M1435.735,1456.213h75.459l-59.779-240.072l-0.069-0.834
			c-1.599-23.323-21.063-41.744-44.803-41.744c-24.817,0-44.907,20.09-44.907,44.907c0,1.39,0.069,2.746,0.209,4.067
			L1435.735,1456.213z"/>
		<polygon style="fill:#FDAE97;" points="1427.358,1499.208 1418.494,1507.202 1507.69,1507.202 1505.658,1499.208 
			1499.584,1473.939 1494.056,1456.213 1446.612,1456.213 1455.372,1473.939 		"/>
		<path style="fill:#088CFF;" d="M1507.7,1507.212h-89.178c0.115-2.41,0.459-4.763,1.033-7.001
			c3.96-15.207,17.732-26.283,33.973-26.283h46.081l6.025,25.307l0.229,0.976L1507.7,1507.212z"/>
		
			<line style="fill:none;stroke:#FFFFFF;stroke-width:0.8689;stroke-miterlimit:10;" x1="1466.295" y1="1483.747" x2="1451.357" y2="1483.747"/>
		
			<line style="fill:none;stroke:#FFFFFF;stroke-width:0.8689;stroke-miterlimit:10;" x1="1461.55" y1="1489.546" x2="1446.612" y2="1489.546"/>
		<circle style="fill:#FFFFFF;" cx="1483.518" cy="1487.613" r="6.327"/>
		<path style="fill:none;stroke:#2C3447;stroke-width:0.9818;stroke-miterlimit:10;" d="M1565.066,905.821
			c0,0-2.809-1.192-6.628,1.292"/>
		<path style="fill:#088CFF;" d="M1643.633,1613.297h75.459l-23.948-240.072l-0.069-0.834
			c-1.599-23.323-21.063-41.744-44.803-41.744c-24.817,0-44.907,20.09-44.907,44.907c0,1.39,0.069,2.746,0.208,4.067
			L1643.633,1613.297z"/>
		<path style="fill:#FFFFFF;" d="M1507.7,1507.212h-89.178c0.115-2.41,0.459-4.763,1.033-7.001h86.308L1507.7,1507.212z"/>
		<path style="fill:none;stroke:#2C3447;stroke-width:0.9818;stroke-miterlimit:10;" d="M1569.973,914.096
			c0,0-2.426,9.903-8.536,9.832c0,0,1.485,2.101,3.66,3.311"/>
		<path style="fill:#088CFF;" d="M1650.655,1166.238c23.126,19.151,38.912,60.016,39.577,114.557
			c0.665,54.542,4.721,89.561,4.721,89.561c2.598,24.719-15.334,46.863-40.053,49.461c-24.719,2.598-46.863-15.334-49.461-40.053
			l-34.925-213.527H1650.655z"/>
		<g>
			<path style="fill:#6ADB6A;" d="M1358.823,958.529l270.117,321.691l59.942-50.333l-270.117-321.691
				c4.914,5.853,5.566,13.441,1.428,16.916c-4.138,3.475-11.499,1.52-16.414-4.333c4.914,5.853,5.567,13.441,1.428,16.916
				c-4.139,3.475-11.499,1.52-16.414-4.333c4.914,5.853,5.566,13.441,1.428,16.916c-4.138,3.475-11.499,1.52-16.414-4.333
				c4.914,5.853,5.566,13.441,1.428,16.916C1371.098,966.337,1363.737,964.381,1358.823,958.529z"/>
			<path style="fill:#F9D6AF;" d="M1358.824,958.528c4.703,5.601,11.891,7.35,16.03,3.875c4.138-3.475,3.659-10.858-1.044-16.458
				c4.703,5.601,11.891,7.35,16.03,3.875c4.138-3.475,3.659-10.858-1.044-16.458c4.703,5.601,11.891,7.35,16.029,3.875
				c4.138-3.475,3.659-10.858-1.044-16.458c4.703,5.601,11.891,7.35,16.029,3.875c4.138-3.475,3.659-10.858-1.044-16.458
				c-0.298-0.355-0.594-0.685-0.912-0.998l-8.132-4.51l-67.252-37.234l-19.996-11.076l7.45,21.611l25.039,72.679l3.035,8.789
				C1358.252,957.824,1358.526,958.173,1358.824,958.528z"/>
			<path style="fill:#6ADB6A;" d="M1329.925,875.989c2.716-0.769,5.225-2.07,7.414-3.908c2.189-1.838,3.905-4.085,5.132-6.627
				l-19.996-11.076L1329.925,875.989z"/>
			<path style="fill:#E7888B;" d="M1697.966,1310.196l8.503-7.14c14.204-11.927,16.051-33.111,4.123-47.316l-3.512-4.182
				l-59.943,50.333l3.512,4.182C1662.577,1320.277,1683.761,1322.124,1697.966,1310.196z"/>
			<path style="fill:#93ACBF;" d="M1648.072,1302.379l59.328-49.816c1.647-1.383,1.861-3.84,0.478-5.487l-24.564-29.254
				c-1.383-1.647-3.84-1.861-5.487-0.478l-59.328,49.816c-1.647,1.383-1.861,3.84-0.478,5.487l24.564,29.254
				C1643.968,1303.548,1646.425,1303.762,1648.072,1302.379z"/>
			
				<line style="fill:none;stroke:#BBDBF3;stroke-width:1.0746;stroke-linecap:round;stroke-linejoin:round;stroke-miterlimit:10;" x1="1682.291" y1="1228.206" x2="1642.316" y2="1261.773"/>
			
				<line style="fill:none;stroke:#BBDBF3;stroke-width:1.0746;stroke-linecap:round;stroke-linejoin:round;stroke-miterlimit:10;" x1="1684.369" y1="1243.95" x2="1635.297" y2="1285.155"/>
			
				<line style="fill:none;stroke:#BBDBF3;stroke-width:1.0746;stroke-linecap:round;stroke-linejoin:round;stroke-miterlimit:10;" x1="1697.594" y1="1250.334" x2="1656.466" y2="1284.869"/>
			
				<line style="fill:none;stroke:#40A87B;stroke-width:1.4398;stroke-linecap:round;stroke-linejoin:round;stroke-miterlimit:10;" x1="1414.359" y1="932.274" x2="1634.233" y2="1194.128"/>
			
				<line style="fill:none;stroke:#40A87B;stroke-width:1.4398;stroke-linecap:round;stroke-linejoin:round;stroke-miterlimit:10;" x1="1395.619" y1="941.488" x2="1637.389" y2="1229.42"/>
			
				<line style="fill:none;stroke:#40A87B;stroke-width:1.4398;stroke-linecap:round;stroke-linejoin:round;stroke-miterlimit:10;" x1="1384.756" y1="961.281" x2="1415.411" y2="997.789"/>
			
				<line style="fill:none;stroke:#40A87B;stroke-width:1.4398;stroke-linecap:round;stroke-linejoin:round;stroke-miterlimit:10;" x1="1420.375" y1="1003.7" x2="1591.491" y2="1207.489"/>
		</g>
		<path style="fill:none;stroke:#2C3447;stroke-width:0.9818;stroke-miterlimit:10;" d="M1562.279,935.312
			c0,0,5.888,4.168,12.135-1.959"/>
		<path style="fill:#E89780;" d="M1589.685,926.414c0.175,2.137-3.08,4.147-7.27,4.49c-4.19,0.343-7.728-1.112-7.903-3.248
			c-0.175-2.137,3.08-4.147,7.27-4.49C1585.972,922.823,1589.51,924.277,1589.685,926.414z"/>
		<path style="fill:#E89780;" d="M1558.172,923.054c-0.615,1.175-2.307,1.589-4.377,1.254c0.428-1.716,1.035-4.13,1.71-6.864
			C1557.817,919.334,1558.982,921.586,1558.172,923.054z"/>
		<path style="fill:#FDAE97;" d="M1478.185,1082.913c1.404-2.569,4.955,0.364,4.955,0.364s-1.242-4.586,1.549-6.203
			c2.792-1.617,12.887,4.835,17.95,7.03c5.063,2.194,17.269,6.372,18.92,5.4c1.651-0.972-12.867-10.058-11.652-13.37
			c1.216-3.312,24.151,5.299,32.11,9.407c3.423,1.767,7.754,3.374,11.582,4.634l117.46,11.988
			c13.208,3.152,21.093,17.974,17.522,32.938c-3.571,14.964-17.299,24.628-30.508,21.476l-110.321-36.986
			c-5.012-0.289-28.871-1.729-38.724-3.43c-11.037-1.905-24.601-9.098-24.294-11.627c0.307-2.529,2.577-1.997,2.577-1.997
			s-9.603-6.538-8.759-9.756c0.844-3.218,2.653-1.384,2.653-1.384S1476.781,1085.483,1478.185,1082.913z"/>
		
			<ellipse transform="matrix(0.7986 -0.6018 0.6018 0.7986 -207.1497 1156.4292)" style="fill:#322A28;" cx="1624.518" cy="887.766" rx="15.519" ry="23.209"/>
		<path style="fill:none;stroke:#FFFFFF;stroke-width:0.8689;stroke-miterlimit:10;" d="M1600.662,940.127
			c-0.389,1.85,0.796,3.665,2.646,4.054c1.85,0.389,3.665-0.796,4.054-2.646c0.389-1.85-0.796-3.665-2.646-4.054
			C1602.866,937.092,1601.051,938.277,1600.662,940.127z"/>
		<polygon style="fill:#FDAE97;" points="1635.5,1656.292 1626.637,1664.286 1709.36,1664.286 1708.978,1656.292 1707.726,1631.023 
			1706.858,1613.297 1659.413,1613.297 1663.515,1631.023 		"/>
		<path style="fill:#088CFC;" d="M1709.353,1664.276h-82.693l0.747-3.73c0.229-1.09,0.516-2.181,0.86-3.271
			c2.123-7.173,6.37-13.371,11.937-17.904c6.369-5.222,14.518-8.321,23.298-8.321h44.245l1.205,25.25l0.057,0.975L1709.353,1664.276
			z"/>
		
			<line style="fill:none;stroke:#FFFFFF;stroke-width:0.8689;stroke-miterlimit:10;" x1="1674.437" y1="1640.831" x2="1659.499" y2="1640.831"/>
		
			<line style="fill:none;stroke:#FFFFFF;stroke-width:0.8689;stroke-miterlimit:10;" x1="1669.692" y1="1646.63" x2="1654.754" y2="1646.63"/>
		<path style="fill:#FFFFFF;" d="M1685.333,1644.697c0,3.494,2.833,6.327,6.327,6.327c3.494,0,6.327-2.833,6.327-6.327
			c0-3.494-2.833-6.327-6.327-6.327C1688.166,1638.37,1685.333,1641.203,1685.333,1644.697z"/>
		
			<line style="fill:none;stroke:#FFFFFF;stroke-width:1.3226;stroke-miterlimit:10;" x1="1633.266" y1="1101.121" x2="1624.158" y2="1051.909"/>
		<path style="fill:#FFFFFF;" d="M1709.353,1664.276h-82.693l0.747-3.73c0.229-1.09,0.516-2.181,0.86-3.271h80.742
			L1709.353,1664.276z"/>
	</g>
	<path style="fill:#0775EF;" d="M2251.47,2007.467H288.694c-11.519,0-20.856-9.338-20.856-20.856v-1.84
		c0-11.518,9.338-20.856,20.856-20.856H2251.47c11.519,0,20.856,9.338,20.856,20.856v1.84
		C2272.326,1998.13,2262.989,2007.467,2251.47,2007.467z"/>
</g>
</svg>
